<?xml version="1.0" standalone="no"?>
<!DOCTYPE svg PUBLIC "-//W3C//DTD SVG 20010904//EN"
 "http://www.w3.org/TR/2001/REC-SVG-20010904/DTD/svg10.dtd">
<svg version="1.0" xmlns="http://www.w3.org/2000/svg"
 width="512.000000pt" height="512.000000pt" viewBox="0 0 512.000000 512.000000"
 preserveAspectRatio="xMidYMid meet">
<metadata>
Created by potrace 1.14, written by Peter Selinger 2001-2017
</metadata>
<g transform="translate(0.000000,512.000000) scale(0.100000,-0.100000)"
fill="#000000" stroke="none">
<path d="M0 4980 c0 -105 3 -140 13 -140 63 -2 904 75 977 90 70 13 145 18
290 19 225 1 270 -8 345 -70 26 -21 50 -39 54 -39 3 0 92 -18 196 -41 105 -22
352 -73 550 -114 396 -82 467 -101 530 -145 69 -47 90 -78 136 -198 5 -13 29
-31 61 -45 29 -13 208 -95 398 -182 340 -157 346 -160 410 -225 52 -51 70 -78
85 -124 l20 -59 485 -314 c267 -173 504 -333 527 -356 l43 -41 0 1062 0 1062
-2560 0 -2560 0 0 -140z"/>
<path d="M1011 4858 c-49 -14 -132 -102 -153 -163 -10 -27 -135 -612 -279
-1300 -284 -1358 -286 -1367 -242 -1450 25 -47 75 -96 122 -120 27 -14 181
-51 411 -100 l35 -8 -44 44 c-24 24 -55 68 -68 97 -14 28 -26 52 -28 52 -1 0
-46 9 -99 20 -143 29 -183 56 -193 127 -3 27 73 413 257 1292 143 690 267
1268 274 1286 21 49 61 75 116 75 26 0 209 -34 406 -75 197 -41 366 -75 376
-75 9 0 26 13 37 29 12 16 44 44 72 62 l52 33 -449 93 c-449 93 -528 103 -603
81z"/>
<path d="M810 4834 c-13 -3 -777 -74 -801 -74 -5 0 -9 -36 -9 -80 0 -78 1 -80
23 -76 12 3 166 17 342 31 176 14 338 28 360 31 39 5 41 7 78 84 46 98 45 94
7 84z"/>
<path d="M2137 4606 c-59 -16 -113 -59 -150 -118 -26 -42 -423 -899 -902
-1948 -112 -245 -209 -467 -216 -493 -26 -104 12 -206 99 -270 34 -26 558
-276 697 -333 6 -3 10 28 10 82 l-1 87 -284 129 c-157 72 -299 141 -317 154
-43 33 -60 88 -43 140 7 22 191 428 410 904 218 476 455 993 526 1149 149 329
172 361 248 361 36 0 81 -16 209 -74 436 -199 552 -252 678 -313 l136 -65 44
24 c37 19 59 23 142 23 l97 0 -47 23 c-27 12 -127 58 -223 101 -96 43 -341
155 -545 248 -203 94 -386 175 -405 181 -62 19 -114 21 -163 8z"/>
<path d="M2551 4575 c11 -11 443 -205 447 -200 10 10 -44 74 -87 103 -53 34
-106 52 -243 81 -98 21 -125 25 -117 16z"/>
<path d="M634 4520 c-180 -36 -271 -151 -294 -374 -18 -173 18 -422 80 -550
30 -64 84 -135 94 -125 11 11 48 211 43 233 -3 11 -12 46 -21 76 -9 30 -21
106 -27 167 -13 137 -1 248 37 333 32 71 68 107 125 124 42 13 45 16 55 64 7
28 9 54 6 57 -7 7 -47 5 -98 -5z"/>
<path d="M1390 4496 c0 -17 -152 -728 -165 -772 -8 -27 -30 -68 -49 -90 l-34
-39 -100 0 -101 0 -6 -35 c-4 -19 -9 -45 -12 -57 -4 -19 1 -22 49 -32 72 -15
174 -16 227 -1 25 6 61 28 87 52 79 73 96 124 184 546 44 210 80 386 80 391 0
5 -26 15 -57 21 -32 6 -68 14 -80 17 -13 3 -23 2 -23 -1z"/>
<path d="M13 4444 c-24 -10 -17 -449 13 -784 14 -162 29 -298 33 -302 7 -8
154 2 170 11 7 5 -5 178 -37 541 l-47 535 -60 2 c-33 1 -66 -1 -72 -3z"/>
<path d="M2315 4186 c-138 -44 -254 -169 -350 -380 -84 -186 -111 -361 -72
-474 25 -71 100 -151 180 -193 l63 -32 49 -120 48 -119 66 6 c36 4 67 9 70 11
2 3 -14 44 -37 93 -23 48 -42 90 -42 93 0 4 20 9 45 12 135 19 256 135 359
344 57 114 93 222 107 317 27 182 -50 327 -215 405 -103 49 -195 61 -271 37z
m221 -144 c137 -71 148 -212 35 -472 -104 -239 -211 -360 -319 -360 -104 0
-204 75 -217 164 -15 98 25 239 121 426 99 196 188 277 290 267 28 -3 69 -14
90 -25z"/>
<path d="M3625 3992 c17 -15 326 -213 342 -219 13 -5 13 -2 4 15 -20 37 -95
93 -181 134 -112 54 -177 81 -165 70z"/>
<path d="M3365 3971 c-48 -12 -87 -36 -132 -83 -23 -24 -252 -369 -508 -768
-257 -399 -574 -889 -703 -1089 -129 -200 -243 -386 -254 -413 -40 -105 -10
-220 75 -293 23 -20 147 -104 277 -187 129 -83 281 -182 338 -220 l102 -68 0
33 c0 18 6 57 14 87 8 30 11 56 8 58 -32 12 -596 382 -624 410 -22 21 -40 49
-44 69 -11 59 -59 -21 576 963 378 585 760 1175 808 1249 59 89 127 113 203
72 19 -11 216 -136 437 -279 l402 -260 58 20 c43 15 72 19 120 15 35 -3 62 -3
60 -1 -2 2 -87 57 -189 122 -101 65 -330 212 -508 326 -369 238 -418 261 -516
237z"/>
<path d="M3145 3191 c-159 -247 -291 -454 -293 -459 -2 -8 118 -92 131 -92 2
0 66 97 142 215 76 119 141 212 145 208 4 -4 38 -165 76 -357 l69 -349 57 -38
c31 -22 62 -39 67 -39 6 0 18 11 27 25 15 23 14 33 -15 167 -17 79 -51 238
-75 355 -39 189 -42 213 -27 217 14 4 286 57 589 115 57 10 106 21 108 24 3 2
-35 29 -83 60 l-88 55 -310 -64 c-170 -35 -313 -63 -317 -64 -18 -1 -2 28 103
191 60 94 113 177 115 184 5 12 -103 95 -123 95 -4 0 -138 -202 -298 -449z"/>
<path d="M4393 3189 c-23 -11 -57 -36 -77 -55 -28 -28 -606 -767 -1528 -1955
-54 -70 -109 -151 -123 -180 -48 -104 -25 -217 62 -301 21 -20 229 -185 463
-367 l425 -331 129 0 128 0 -413 320 c-631 489 -631 490 -648 533 -11 30 -12
46 -3 75 7 23 146 210 369 497 196 253 550 709 786 1012 235 304 442 564 459
578 39 33 71 40 116 27 29 -9 329 -232 570 -424 9 -8 12 11 12 89 l0 99 -225
174 c-124 96 -251 187 -283 202 -71 35 -156 37 -219 7z"/>
<path d="M406 3050 c-29 -63 -47 -192 -29 -203 9 -6 69 250 60 259 -2 2 -16
-23 -31 -56z"/>
<path d="M4915 3063 c21 -20 101 -80 115 -87 28 -14 -65 66 -95 81 -16 8 -25
11 -20 6z"/>
<path d="M2180 2846 c-93 -25 -182 -103 -225 -199 -35 -76 -58 -205 -50 -282
10 -101 47 -276 58 -272 5 1 110 158 232 347 160 246 221 348 213 357 -17 21
-91 51 -138 56 -25 3 -65 0 -90 -7z"/>
<path d="M4355 2379 c-236 -155 -451 -295 -477 -311 -27 -16 -48 -34 -48 -38
0 -9 114 -100 125 -100 4 0 57 34 118 76 60 42 116 78 123 81 7 2 86 -53 176
-123 90 -70 165 -129 167 -131 2 -1 -19 -66 -48 -144 -29 -77 -51 -142 -49
-143 1 -1 31 -24 66 -51 34 -26 64 -46 66 -44 8 8 366 1066 366 1080 0 12
-139 129 -152 129 -2 0 -196 -127 -433 -281z m330 -158 c-54 -144 -102 -261
-107 -261 -10 0 -268 197 -268 205 0 2 44 34 98 71 308 215 366 254 370 250 2
-3 -40 -122 -93 -265z"/>
<path d="M3143 2202 c-179 -64 -283 -242 -283 -482 0 -129 11 -290 20 -290 7
0 505 637 532 679 16 26 1 43 -66 76 -71 35 -138 40 -203 17z"/>
<path d="M153 1782 l-153 -15 0 -79 0 -80 47 6 c51 7 643 56 670 56 35 0 2 10
-111 34 -75 16 -144 38 -189 61 -40 19 -81 34 -92 34 -11 -1 -89 -9 -172 -17z"/>
<path d="M915 1618 c-74 -10 -830 -78 -876 -78 l-39 0 0 -770 0 -770 1746 0
1746 0 -29 23 c-15 13 -199 156 -407 318 -279 216 -392 309 -424 351 -32 42
-71 74 -136 114 -285 178 -687 446 -732 489 -29 27 -75 59 -101 69 -26 11
-144 64 -261 118 -277 127 -371 153 -487 136z"/>
<path d="M4087 1470 c-131 -33 -235 -140 -294 -301 l-27 -74 -4 -427 c-3 -408
-2 -428 15 -428 10 0 178 41 373 90 428 108 482 130 601 249 59 60 81 89 99
136 29 77 32 173 7 237 -24 61 -100 131 -162 148 -86 24 -209 -7 -298 -74 -19
-14 -36 -26 -39 -26 -4 0 5 30 18 68 26 75 32 179 13 243 -34 111 -181 189
-302 159z"/>
<path d="M4820 429 c-162 -209 -303 -391 -313 -404 l-19 -25 99 0 98 0 218
280 218 280 -3 124 -3 124 -295 -379z"/>
<path d="M4955 224 c-88 -114 -161 -210 -163 -215 -2 -5 71 -9 162 -9 l166 0
0 215 c0 118 -1 215 -2 215 -2 0 -75 -93 -163 -206z"/>
</g>
</svg>
