<svg width="82.767" height="116.849" viewBox="0 0 82.767 116.849" xmlns="http://www.w3.org/2000/svg"><g id="svgGroup" stroke-linecap="round" fill-rule="evenodd" font-size="9pt" stroke="#000" stroke-width="0.25mm" fill="#000" style="stroke:#000;stroke-width:0.25mm;fill:#000"><path d="M 11.72 0.002 L 71.047 0.002 Q 80.346 0.002 82.266 7.381 A 17.265 17.265 0 0 1 82.765 11.72 L 82.765 105.129 Q 82.765 114.428 75.386 116.348 A 17.265 17.265 0 0 1 71.047 116.847 L 11.72 116.847 Q 2.421 116.847 0.501 109.468 A 17.265 17.265 0 0 1 0.002 105.129 L 0.002 11.72 Q 0.002 2.421 7.381 0.501 A 17.265 17.265 0 0 1 11.72 0.002 Z M 71.047 5.861 L 11.72 5.861 Q 7.071 5.861 6.111 9.551 A 8.633 8.633 0 0 0 5.861 11.72 L 5.861 105.129 Q 5.861 109.778 9.551 110.738 A 8.633 8.633 0 0 0 11.72 110.988 L 71.047 110.988 Q 75.696 110.988 76.656 107.299 A 8.633 8.633 0 0 0 76.906 105.129 L 76.906 11.72 Q 76.906 7.071 73.217 6.111 A 8.633 8.633 0 0 0 71.047 5.861 Z M 51.906 105.129 L 44.387 105.129 Q 46.97 101.684 47.155 90.877 A 100.034 100.034 0 0 0 47.17 89.162 Q 43.707 98.539 35.604 98.539 A 14.193 14.193 0 0 1 35.353 98.537 Q 32.765 98.488 31.545 97.902 Q 24.59 94.711 24.42 87.709 A 14.556 14.556 0 0 1 24.416 87.355 A 13.742 13.742 0 0 1 24.54 85.456 Q 24.68 84.456 24.977 83.614 A 7.542 7.542 0 0 1 25.197 83.058 A 11.497 11.497 0 0 1 28.526 78.633 Q 30.698 76.913 33.791 76.396 A 17.17 17.17 0 0 1 36.623 76.174 A 23.914 23.914 0 0 1 39.091 76.293 Q 41.145 76.507 42.678 77.101 Q 36.623 70.754 36.623 65.578 A 16.317 16.317 0 0 1 37.194 61.056 Q 39.189 54.152 48.146 54.152 A 16.816 16.816 0 0 1 52.636 54.699 Q 57.774 56.125 59.159 61.273 A 16.6 16.6 0 0 1 59.67 65.578 A 10.838 10.838 0 0 1 58.782 69.712 Q 57.352 73.184 53.615 77.101 Q 55.475 76.38 58.102 76.22 A 25.721 25.721 0 0 1 59.67 76.174 A 15.546 15.546 0 0 1 64.161 76.78 A 10.767 10.767 0 0 1 71.095 83.058 A 8.466 8.466 0 0 1 71.656 84.878 Q 71.877 86.006 71.877 87.355 A 11.033 11.033 0 0 1 70.536 92.84 Q 69.292 95.062 66.891 96.683 A 16.812 16.812 0 0 1 64.748 97.902 Q 63.716 98.397 61.708 98.509 A 21.028 21.028 0 0 1 60.939 98.537 A 13.716 13.716 0 0 1 60.534 98.543 Q 52.599 98.543 49.123 89.162 A 85.048 85.048 0 0 0 49.256 94.115 Q 49.732 102.23 51.906 105.129 Z M 11.72 51.222 L 11.72 45.314 A 21.9 21.9 0 0 0 17.165 47.267 A 27.861 27.861 0 0 0 21.729 47.862 A 32.359 32.359 0 0 0 23.342 47.902 Q 26.834 47.902 29.297 47.071 A 9.925 9.925 0 0 0 31.594 45.973 A 6.832 6.832 0 0 0 33.435 44.239 Q 34.455 42.805 34.519 40.885 A 7.782 7.782 0 0 0 34.523 40.627 A 7.636 7.636 0 0 0 34.188 38.303 A 5.902 5.902 0 0 0 31.813 35.158 Q 29.103 33.303 23.83 33.303 L 19.631 33.303 L 19.631 28.029 L 24.22 28.029 A 21.985 21.985 0 0 0 26.75 27.894 Q 29.443 27.581 31.092 26.546 A 6.442 6.442 0 0 0 31.178 26.491 A 5.151 5.151 0 0 0 32.858 24.777 Q 33.547 23.603 33.547 22.023 Q 33.547 19.431 31.501 17.964 A 6.372 6.372 0 0 0 31.105 17.702 A 8.595 8.595 0 0 0 29.016 16.809 Q 26.961 16.213 24.025 16.213 A 20.745 20.745 0 0 0 22.213 16.297 Q 21.29 16.378 20.272 16.537 A 35.81 35.81 0 0 0 19.582 16.652 Q 17.147 17.082 13.311 18.165 A 129.62 129.62 0 0 0 13.137 18.215 L 13.137 12.599 A 83.957 83.957 0 0 1 17.214 11.751 A 67.166 67.166 0 0 1 19.826 11.33 A 46.575 46.575 0 0 1 23.203 10.975 A 36.54 36.54 0 0 1 25.637 10.89 A 27.832 27.832 0 0 1 30.08 11.223 Q 34.07 11.869 36.794 13.771 A 10.184 10.184 0 0 1 39.388 16.32 Q 40.92 18.54 40.92 21.486 A 8.549 8.549 0 0 1 40.318 24.732 A 7.977 7.977 0 0 1 38.722 27.199 A 9.917 9.917 0 0 1 35.729 29.348 Q 34.304 30.03 32.521 30.422 A 16.068 16.068 0 0 1 35.664 31.356 Q 37.957 32.319 39.479 33.962 A 9.181 9.181 0 0 1 41.902 39.587 A 12.189 12.189 0 0 1 41.945 40.627 A 12.585 12.585 0 0 1 41.293 44.776 A 10.428 10.428 0 0 1 37.306 49.953 A 15.687 15.687 0 0 1 32.877 52.071 Q 29.157 53.224 24.025 53.224 A 33.697 33.697 0 0 1 19.886 52.96 A 39.614 39.614 0 0 1 18.19 52.712 A 55.075 55.075 0 0 1 14.232 51.89 A 67.783 67.783 0 0 1 11.72 51.222 Z" vector-effect="non-scaling-stroke"/></g></svg>