<svg width="82.767" height="116.849" viewBox="0 0 82.767 116.849" xmlns="http://www.w3.org/2000/svg"><g id="svgGroup" stroke-linecap="round" fill-rule="evenodd" font-size="9pt" stroke="#000" stroke-width="0.25mm" fill="#000" style="stroke:#000;stroke-width:0.25mm;fill:#000"><path d="M 11.72 0.002 L 71.047 0.002 Q 80.346 0.002 82.266 7.381 A 17.265 17.265 0 0 1 82.765 11.72 L 82.765 105.129 Q 82.765 114.428 75.386 116.348 A 17.265 17.265 0 0 1 71.047 116.847 L 11.72 116.847 Q 2.421 116.847 0.501 109.468 A 17.265 17.265 0 0 1 0.002 105.129 L 0.002 11.72 Q 0.002 2.421 7.381 0.501 A 17.265 17.265 0 0 1 11.72 0.002 Z M 71.047 5.861 L 11.72 5.861 Q 7.071 5.861 6.111 9.551 A 8.633 8.633 0 0 0 5.861 11.72 L 5.861 105.129 Q 5.861 109.778 9.551 110.738 A 8.633 8.633 0 0 0 11.72 110.988 L 71.047 110.988 Q 75.696 110.988 76.656 107.299 A 8.633 8.633 0 0 0 76.906 105.129 L 76.906 11.72 Q 76.906 7.071 73.217 6.111 A 8.633 8.633 0 0 0 71.047 5.861 Z M 51.906 105.129 L 44.387 105.129 Q 46.97 101.684 47.155 90.877 A 100.034 100.034 0 0 0 47.17 89.162 Q 43.707 98.539 35.604 98.539 A 14.193 14.193 0 0 1 35.353 98.537 Q 32.765 98.488 31.545 97.902 Q 24.59 94.711 24.42 87.709 A 14.556 14.556 0 0 1 24.416 87.355 A 13.742 13.742 0 0 1 24.54 85.456 Q 24.68 84.456 24.977 83.614 A 7.542 7.542 0 0 1 25.197 83.058 A 11.497 11.497 0 0 1 28.526 78.633 Q 30.698 76.913 33.791 76.396 A 17.17 17.17 0 0 1 36.623 76.174 A 23.914 23.914 0 0 1 39.091 76.293 Q 41.145 76.507 42.678 77.101 Q 36.623 70.754 36.623 65.578 A 16.317 16.317 0 0 1 37.194 61.056 Q 39.189 54.152 48.146 54.152 A 16.816 16.816 0 0 1 52.636 54.699 Q 57.774 56.125 59.159 61.273 A 16.6 16.6 0 0 1 59.67 65.578 A 10.838 10.838 0 0 1 58.782 69.712 Q 57.352 73.184 53.615 77.101 Q 55.475 76.38 58.102 76.22 A 25.721 25.721 0 0 1 59.67 76.174 A 15.546 15.546 0 0 1 64.161 76.78 A 10.767 10.767 0 0 1 71.095 83.058 A 8.466 8.466 0 0 1 71.656 84.878 Q 71.877 86.006 71.877 87.355 A 11.033 11.033 0 0 1 70.536 92.84 Q 69.292 95.062 66.891 96.683 A 16.812 16.812 0 0 1 64.748 97.902 Q 63.716 98.397 61.708 98.509 A 21.028 21.028 0 0 1 60.939 98.537 A 13.716 13.716 0 0 1 60.534 98.543 Q 52.599 98.543 49.123 89.162 A 85.048 85.048 0 0 0 49.256 94.115 Q 49.732 102.23 51.906 105.129 Z M 13.674 32.131 L 13.674 11.72 L 38.576 11.72 L 38.576 16.359 L 19.484 16.359 L 19.484 26.32 A 16.402 16.402 0 0 1 22.267 25.685 A 19.312 19.312 0 0 1 25.002 25.49 A 26.651 26.651 0 0 1 30.02 25.934 Q 32.921 26.491 35.216 27.745 A 14.475 14.475 0 0 1 37.453 29.25 Q 42.043 32.961 42.043 39.357 A 14.667 14.667 0 0 1 41.377 43.889 A 11.627 11.627 0 0 1 37.306 49.611 A 15.657 15.657 0 0 1 32.357 52.113 Q 30.143 52.803 27.465 53.065 A 35.411 35.411 0 0 1 24.025 53.224 A 42.21 42.21 0 0 1 18.403 52.838 A 46.327 46.327 0 0 1 18.019 52.785 A 50.994 50.994 0 0 1 12.624 51.705 A 56.971 56.971 0 0 1 11.72 51.467 L 11.72 45.949 A 27.871 27.871 0 0 0 17.531 47.951 Q 20.558 48.586 23.928 48.586 Q 28.069 48.586 30.899 47.132 A 10.089 10.089 0 0 0 32.521 46.095 A 7.974 7.974 0 0 0 35.657 40.269 A 10.645 10.645 0 0 0 35.695 39.357 Q 35.695 35.109 32.521 32.619 A 10.947 10.947 0 0 0 28.652 30.713 Q 27.078 30.275 25.208 30.165 A 21.888 21.888 0 0 0 23.928 30.129 A 26.834 26.834 0 0 0 18.849 30.617 A 28.958 28.958 0 0 0 14.823 31.708 A 33.301 33.301 0 0 0 13.674 32.131 Z" vector-effect="non-scaling-stroke"/></g></svg>