<svg width="82.767" height="116.849" viewBox="0 0 82.767 116.849" xmlns="http://www.w3.org/2000/svg"><g id="svgGroup" stroke-linecap="round" fill-rule="evenodd" font-size="9pt" stroke="#000" stroke-width="0.25mm" fill="#000" style="stroke:#000;stroke-width:0.25mm;fill:#000"><path d="M 11.72 0.002 L 71.047 0.002 Q 80.346 0.002 82.266 7.381 A 17.265 17.265 0 0 1 82.765 11.72 L 82.765 105.129 Q 82.765 114.428 75.386 116.348 A 17.265 17.265 0 0 1 71.047 116.847 L 11.72 116.847 Q 2.421 116.847 0.501 109.468 A 17.265 17.265 0 0 1 0.002 105.129 L 0.002 11.72 Q 0.002 2.421 7.381 0.501 A 17.265 17.265 0 0 1 11.72 0.002 Z M 71.047 5.861 L 11.72 5.861 Q 7.071 5.861 6.111 9.551 A 8.633 8.633 0 0 0 5.861 11.72 L 5.861 105.129 Q 5.861 109.778 9.551 110.738 A 8.633 8.633 0 0 0 11.72 110.988 L 71.047 110.988 Q 75.696 110.988 76.656 107.299 A 8.633 8.633 0 0 0 76.906 105.129 L 76.906 11.72 Q 76.906 7.071 73.217 6.111 A 8.633 8.633 0 0 0 71.047 5.861 Z M 51.906 105.129 L 44.387 105.129 Q 46.97 101.684 47.155 90.877 A 100.034 100.034 0 0 0 47.17 89.162 Q 43.707 98.539 35.604 98.539 A 14.193 14.193 0 0 1 35.353 98.537 Q 32.765 98.488 31.545 97.902 Q 24.59 94.711 24.42 87.709 A 14.556 14.556 0 0 1 24.416 87.355 A 13.742 13.742 0 0 1 24.54 85.456 Q 24.68 84.456 24.977 83.614 A 7.542 7.542 0 0 1 25.197 83.058 A 11.497 11.497 0 0 1 28.526 78.633 Q 30.698 76.913 33.791 76.396 A 17.17 17.17 0 0 1 36.623 76.174 A 23.914 23.914 0 0 1 39.091 76.293 Q 41.145 76.507 42.678 77.101 Q 36.623 70.754 36.623 65.578 A 16.317 16.317 0 0 1 37.194 61.056 Q 39.189 54.152 48.146 54.152 A 16.816 16.816 0 0 1 52.636 54.699 Q 57.774 56.125 59.159 61.273 A 16.6 16.6 0 0 1 59.67 65.578 A 10.838 10.838 0 0 1 58.782 69.712 Q 57.352 73.184 53.615 77.101 Q 55.475 76.38 58.102 76.22 A 25.721 25.721 0 0 1 59.67 76.174 A 15.546 15.546 0 0 1 64.161 76.78 A 10.767 10.767 0 0 1 71.095 83.058 A 8.466 8.466 0 0 1 71.656 84.878 Q 71.877 86.006 71.877 87.355 A 11.033 11.033 0 0 1 70.536 92.84 Q 69.292 95.062 66.891 96.683 A 16.812 16.812 0 0 1 64.748 97.902 Q 63.716 98.397 61.708 98.509 A 21.028 21.028 0 0 1 60.939 98.537 A 13.716 13.716 0 0 1 60.534 98.543 Q 52.599 98.543 49.123 89.162 A 85.048 85.048 0 0 0 49.256 94.115 Q 49.732 102.23 51.906 105.129 Z M 41.066 12.502 L 41.066 17.531 A 26.554 26.554 0 0 0 36.232 16.066 Q 33.791 15.529 31.398 15.529 A 17.085 17.085 0 0 0 27.612 15.923 Q 24.947 16.529 23.026 18.064 A 10.272 10.272 0 0 0 21.828 19.191 A 12.763 12.763 0 0 0 19.53 22.991 Q 18.82 24.762 18.426 26.952 A 30.627 30.627 0 0 0 18.019 30.373 Q 19.875 27.98 22.658 26.711 A 14.702 14.702 0 0 1 28.192 25.452 A 17.021 17.021 0 0 1 28.81 25.441 A 21.81 21.81 0 0 1 33.42 25.9 Q 36.408 26.546 38.665 28.102 A 12.829 12.829 0 0 1 39.992 29.152 A 12.411 12.411 0 0 1 43.897 36.666 A 17.77 17.77 0 0 1 44.094 39.357 Q 44.094 45.558 39.797 49.416 A 14.442 14.442 0 0 1 33.286 52.711 A 21.342 21.342 0 0 1 28.469 53.224 A 19.529 19.529 0 0 1 23.318 52.584 A 13.657 13.657 0 0 1 16.017 47.804 Q 12.735 43.664 11.96 36.647 A 42.091 42.091 0 0 1 11.72 32.033 A 28.726 28.726 0 0 1 12.402 25.595 Q 13.559 20.56 16.682 16.999 A 18.369 18.369 0 0 1 16.994 16.652 A 17.43 17.43 0 0 1 27.949 11.093 A 24.561 24.561 0 0 1 31.154 10.89 Q 33.547 10.89 35.988 11.281 A 45.551 45.551 0 0 1 39.598 12.089 A 53.188 53.188 0 0 1 41.066 12.502 Z M 28.469 29.787 A 11.749 11.749 0 0 0 25.613 30.115 A 8.158 8.158 0 0 0 21.681 32.326 A 8.634 8.634 0 0 0 19.499 36.462 A 12.856 12.856 0 0 0 19.191 39.357 A 12.507 12.507 0 0 0 19.509 42.262 A 8.413 8.413 0 0 0 21.681 46.291 Q 24.172 48.879 28.469 48.879 A 11.257 11.257 0 0 0 31.379 48.522 A 8.104 8.104 0 0 0 35.207 46.291 Q 37.697 43.752 37.697 39.357 A 12.801 12.801 0 0 0 37.375 36.403 A 8.618 8.618 0 0 0 35.207 32.326 A 8.28 8.28 0 0 0 30.734 29.991 A 12.022 12.022 0 0 0 28.469 29.787 Z" vector-effect="non-scaling-stroke"/></g></svg>