<svg width="82.767" height="116.849" viewBox="0 0 82.767 116.849" xmlns="http://www.w3.org/2000/svg"><g id="svgGroup" stroke-linecap="round" fill-rule="evenodd" font-size="9pt" stroke="#000" stroke-width="0.25mm" fill="#000" style="stroke:#000;stroke-width:0.25mm;fill:#000"><path d="M 11.72 0.002 L 71.047 0.002 Q 80.346 0.002 82.266 7.381 A 17.265 17.265 0 0 1 82.765 11.72 L 82.765 105.129 Q 82.765 114.428 75.386 116.348 A 17.265 17.265 0 0 1 71.047 116.847 L 11.72 116.847 Q 2.421 116.847 0.501 109.468 A 17.265 17.265 0 0 1 0.002 105.129 L 0.002 11.72 Q 0.002 2.421 7.381 0.501 A 17.265 17.265 0 0 1 11.72 0.002 Z M 71.047 5.861 L 11.72 5.861 Q 7.071 5.861 6.111 9.551 A 8.633 8.633 0 0 0 5.861 11.72 L 5.861 105.129 Q 5.861 109.778 9.551 110.738 A 8.633 8.633 0 0 0 11.72 110.988 L 71.047 110.988 Q 75.696 110.988 76.656 107.299 A 8.633 8.633 0 0 0 76.906 105.129 L 76.906 11.72 Q 76.906 7.071 73.217 6.111 A 8.633 8.633 0 0 0 71.047 5.861 Z M 51.906 105.129 L 44.387 105.129 Q 46.97 101.684 47.155 90.877 A 100.034 100.034 0 0 0 47.17 89.162 Q 43.707 98.539 35.604 98.539 A 14.193 14.193 0 0 1 35.353 98.537 Q 32.765 98.488 31.545 97.902 Q 24.59 94.711 24.42 87.709 A 14.556 14.556 0 0 1 24.416 87.355 A 13.742 13.742 0 0 1 24.54 85.456 Q 24.68 84.456 24.977 83.614 A 7.542 7.542 0 0 1 25.197 83.058 A 11.497 11.497 0 0 1 28.526 78.633 Q 30.698 76.913 33.791 76.396 A 17.17 17.17 0 0 1 36.623 76.174 A 23.914 23.914 0 0 1 39.091 76.293 Q 41.145 76.507 42.678 77.101 Q 36.623 70.754 36.623 65.578 A 16.317 16.317 0 0 1 37.194 61.056 Q 39.189 54.152 48.146 54.152 A 16.816 16.816 0 0 1 52.636 54.699 Q 57.774 56.125 59.159 61.273 A 16.6 16.6 0 0 1 59.67 65.578 A 10.838 10.838 0 0 1 58.782 69.712 Q 57.352 73.184 53.615 77.101 Q 55.475 76.38 58.102 76.22 A 25.721 25.721 0 0 1 59.67 76.174 A 15.546 15.546 0 0 1 64.161 76.78 A 10.767 10.767 0 0 1 71.095 83.058 A 8.466 8.466 0 0 1 71.656 84.878 Q 71.877 86.006 71.877 87.355 A 11.033 11.033 0 0 1 70.536 92.84 Q 69.292 95.062 66.891 96.683 A 16.812 16.812 0 0 1 64.748 97.902 Q 63.716 98.397 61.708 98.509 A 21.028 21.028 0 0 1 60.939 98.537 A 13.716 13.716 0 0 1 60.534 98.543 Q 52.599 98.543 49.123 89.162 A 85.048 85.048 0 0 0 49.256 94.115 Q 49.732 102.23 51.906 105.129 Z M 21.486 30.666 Q 17.385 29.787 15.138 27.394 Q 12.844 24.953 12.844 21.437 A 9.541 9.541 0 0 1 13.61 17.557 Q 14.595 15.315 16.847 13.722 A 14.028 14.028 0 0 1 21.088 11.737 Q 22.917 11.208 25.095 11.01 A 30.194 30.194 0 0 1 27.834 10.89 A 27.916 27.916 0 0 1 32.095 11.195 Q 34.365 11.547 36.209 12.302 A 13.111 13.111 0 0 1 38.82 13.722 A 9.548 9.548 0 0 1 41.558 16.651 Q 42.68 18.567 42.768 21.018 A 11.737 11.737 0 0 1 42.775 21.437 A 9.523 9.523 0 0 1 42.36 24.308 A 7.78 7.78 0 0 1 40.529 27.394 A 10.483 10.483 0 0 1 37.288 29.655 Q 35.978 30.255 34.394 30.618 A 18.327 18.327 0 0 1 34.181 30.666 A 15.012 15.012 0 0 1 37.993 31.947 A 12.156 12.156 0 0 1 41.31 34.377 A 9.137 9.137 0 0 1 43.898 40.961 A 12.121 12.121 0 0 1 43.898 40.969 A 13.391 13.391 0 0 1 43.362 44.861 A 10.06 10.06 0 0 1 39.748 50.051 A 14.073 14.073 0 0 1 35.401 52.22 Q 33.434 52.832 31.054 53.071 A 32.259 32.259 0 0 1 27.834 53.224 A 30.501 30.501 0 0 1 23.334 52.914 Q 18.773 52.233 15.92 50.051 A 10.323 10.323 0 0 1 11.804 42.576 A 15.122 15.122 0 0 1 11.72 40.969 Q 11.72 37.16 14.308 34.377 A 12.134 12.134 0 0 1 18.229 31.697 A 17.023 17.023 0 0 1 21.486 30.666 Z M 34.963 35.207 A 8.715 8.715 0 0 0 31.775 33.562 Q 30.496 33.192 28.97 33.094 A 17.674 17.674 0 0 0 27.834 33.058 Q 24.424 33.058 22.115 34.27 A 8.072 8.072 0 0 0 20.705 35.207 A 6.846 6.846 0 0 0 18.148 40.186 A 9.681 9.681 0 0 0 18.117 40.969 A 8.541 8.541 0 0 0 18.481 43.525 A 6.677 6.677 0 0 0 20.705 46.779 A 8.737 8.737 0 0 0 23.781 48.354 Q 25.563 48.879 27.834 48.879 A 15.256 15.256 0 0 0 30.703 48.625 Q 33.232 48.14 34.963 46.73 A 6.846 6.846 0 0 0 37.52 41.751 A 9.681 9.681 0 0 0 37.551 40.969 A 8.316 8.316 0 0 0 37.164 38.37 A 6.685 6.685 0 0 0 34.963 35.207 Z M 19.142 21.974 A 6.656 6.656 0 0 0 19.566 24.393 A 5.976 5.976 0 0 0 21.437 26.906 A 7.405 7.405 0 0 0 23.864 28.172 Q 24.926 28.51 26.212 28.637 A 16.558 16.558 0 0 0 27.834 28.713 A 14.078 14.078 0 0 0 30.461 28.482 Q 31.962 28.197 33.158 27.559 A 7.747 7.747 0 0 0 34.181 26.906 A 5.661 5.661 0 0 0 36.487 22.757 A 7.917 7.917 0 0 0 36.525 21.974 A 6.514 6.514 0 0 0 36.077 19.516 A 5.995 5.995 0 0 0 34.181 17.043 Q 31.887 15.236 27.834 15.236 Q 24.826 15.236 22.76 16.231 A 7.457 7.457 0 0 0 21.437 17.043 A 5.693 5.693 0 0 0 19.178 21.203 A 8.094 8.094 0 0 0 19.142 21.974 Z" vector-effect="non-scaling-stroke"/></g></svg>