<svg width="82.767" height="116.849" viewBox="0 0 82.767 116.849" xmlns="http://www.w3.org/2000/svg"><g id="svgGroup" stroke-linecap="round" fill-rule="evenodd" font-size="9pt" stroke="#000" stroke-width="0.25mm" fill="#000" style="stroke:#000;stroke-width:0.25mm;fill:#000"><path d="M 11.72 0.002 L 71.047 0.002 Q 80.346 0.002 82.266 7.381 A 17.265 17.265 0 0 1 82.765 11.72 L 82.765 105.129 Q 82.765 114.428 75.386 116.348 A 17.265 17.265 0 0 1 71.047 116.847 L 11.72 116.847 Q 2.421 116.847 0.501 109.468 A 17.265 17.265 0 0 1 0.002 105.129 L 0.002 11.72 Q 0.002 2.421 7.381 0.501 A 17.265 17.265 0 0 1 11.72 0.002 Z M 71.047 5.861 L 11.72 5.861 Q 7.071 5.861 6.111 9.551 A 8.633 8.633 0 0 0 5.861 11.72 L 5.861 105.129 Q 5.861 109.778 9.551 110.738 A 8.633 8.633 0 0 0 11.72 110.988 L 71.047 110.988 Q 75.696 110.988 76.656 107.299 A 8.633 8.633 0 0 0 76.906 105.129 L 76.906 11.72 Q 76.906 7.071 73.217 6.111 A 8.633 8.633 0 0 0 71.047 5.861 Z M 51.906 105.129 L 44.387 105.129 Q 46.97 101.684 47.155 90.877 A 100.034 100.034 0 0 0 47.17 89.162 Q 43.707 98.539 35.604 98.539 A 14.193 14.193 0 0 1 35.353 98.537 Q 32.765 98.488 31.545 97.902 Q 24.59 94.711 24.42 87.709 A 14.556 14.556 0 0 1 24.416 87.355 A 13.742 13.742 0 0 1 24.54 85.456 Q 24.68 84.456 24.977 83.614 A 7.542 7.542 0 0 1 25.197 83.058 A 11.497 11.497 0 0 1 28.526 78.633 Q 30.698 76.913 33.791 76.396 A 17.17 17.17 0 0 1 36.623 76.174 A 23.914 23.914 0 0 1 39.091 76.293 Q 41.145 76.507 42.678 77.101 Q 36.623 70.754 36.623 65.578 A 16.317 16.317 0 0 1 37.194 61.056 Q 39.189 54.152 48.146 54.152 A 16.816 16.816 0 0 1 52.636 54.699 Q 57.774 56.125 59.159 61.273 A 16.6 16.6 0 0 1 59.67 65.578 A 10.838 10.838 0 0 1 58.782 69.712 Q 57.352 73.184 53.615 77.101 Q 55.475 76.38 58.102 76.22 A 25.721 25.721 0 0 1 59.67 76.174 A 15.546 15.546 0 0 1 64.161 76.78 A 10.767 10.767 0 0 1 71.095 83.058 A 8.466 8.466 0 0 1 71.656 84.878 Q 71.877 86.006 71.877 87.355 A 11.033 11.033 0 0 1 70.536 92.84 Q 69.292 95.062 66.891 96.683 A 16.812 16.812 0 0 1 64.748 97.902 Q 63.716 98.397 61.708 98.509 A 21.028 21.028 0 0 1 60.939 98.537 A 13.716 13.716 0 0 1 60.534 98.543 Q 52.599 98.543 49.123 89.162 A 85.048 85.048 0 0 0 49.256 94.115 Q 49.732 102.23 51.906 105.129 Z M 14.748 51.613 L 14.748 46.584 Q 17.14 47.56 19.582 48.097 Q 22.023 48.586 24.367 48.586 A 17.31 17.31 0 0 0 28.18 48.191 Q 31.755 47.384 33.986 44.924 Q 36.417 42.202 37.311 37.351 A 31.041 31.041 0 0 0 37.746 33.742 A 11.054 11.054 0 0 1 34.413 36.684 A 13.772 13.772 0 0 1 33.107 37.355 A 14.211 14.211 0 0 1 28.249 38.576 A 17.027 17.027 0 0 1 26.955 38.625 A 21.565 21.565 0 0 1 22.373 38.166 Q 19.333 37.505 17.045 35.892 A 12.896 12.896 0 0 1 15.822 34.914 A 12.198 12.198 0 0 1 11.946 27.629 A 17.564 17.564 0 0 1 11.72 24.758 A 15.128 15.128 0 0 1 12.369 20.224 A 12.069 12.069 0 0 1 15.969 14.699 A 14.691 14.691 0 0 1 22.616 11.382 A 21.517 21.517 0 0 1 27.345 10.89 A 19.511 19.511 0 0 1 32.437 11.516 A 13.502 13.502 0 0 1 39.748 16.31 Q 43.03 20.45 43.805 27.468 A 42.091 42.091 0 0 1 44.045 32.082 A 28.984 28.984 0 0 1 43.37 38.52 Q 42.28 43.308 39.429 46.762 A 18.263 18.263 0 0 1 38.82 47.463 A 17.43 17.43 0 0 1 27.865 53.022 A 24.561 24.561 0 0 1 24.66 53.224 Q 22.267 53.224 19.826 52.834 A 45.551 45.551 0 0 1 16.216 52.025 A 53.188 53.188 0 0 1 14.748 51.613 Z M 27.345 34.328 A 11.749 11.749 0 0 0 30.201 34 A 8.158 8.158 0 0 0 34.133 31.789 A 8.379 8.379 0 0 0 36.269 27.867 Q 36.623 26.451 36.623 24.758 A 12.507 12.507 0 0 0 36.305 21.853 A 8.413 8.413 0 0 0 34.133 17.824 Q 31.642 15.236 27.345 15.236 Q 23.195 15.236 20.607 17.824 A 8.423 8.423 0 0 0 18.342 22.073 A 12.48 12.48 0 0 0 18.068 24.758 A 12.826 12.826 0 0 0 18.368 27.615 Q 18.856 29.75 20.137 31.276 A 8.008 8.008 0 0 0 20.607 31.789 A 8.28 8.28 0 0 0 25.08 34.124 A 12.022 12.022 0 0 0 27.345 34.328 Z" vector-effect="non-scaling-stroke"/></g></svg>