<svg width="82.767" height="116.849" viewBox="0 0 82.767 116.849" xmlns="http://www.w3.org/2000/svg"><g id="svgGroup" stroke-linecap="round" fill-rule="evenodd" font-size="9pt" stroke="#000" stroke-width="0.25mm" fill="#000" style="stroke:#000;stroke-width:0.25mm;fill:#000"><path d="M 11.72 0.002 L 71.047 0.002 Q 80.346 0.002 82.266 7.381 A 17.265 17.265 0 0 1 82.765 11.72 L 82.765 105.129 Q 82.765 114.428 75.386 116.348 A 17.265 17.265 0 0 1 71.047 116.847 L 11.72 116.847 Q 2.421 116.847 0.501 109.468 A 17.265 17.265 0 0 1 0.002 105.129 L 0.002 11.72 Q 0.002 2.421 7.381 0.501 A 17.265 17.265 0 0 1 11.72 0.002 Z M 71.047 5.861 L 11.72 5.861 Q 7.071 5.861 6.111 9.551 A 8.633 8.633 0 0 0 5.861 11.72 L 5.861 105.129 Q 5.861 109.778 9.551 110.738 A 8.633 8.633 0 0 0 11.72 110.988 L 71.047 110.988 Q 75.696 110.988 76.656 107.299 A 8.633 8.633 0 0 0 76.906 105.129 L 76.906 11.72 Q 76.906 7.071 73.217 6.111 A 8.633 8.633 0 0 0 71.047 5.861 Z M 51.906 105.129 L 44.387 105.129 Q 46.97 101.684 47.155 90.877 A 100.034 100.034 0 0 0 47.17 89.162 Q 43.707 98.539 35.604 98.539 A 14.193 14.193 0 0 1 35.353 98.537 Q 32.765 98.488 31.545 97.902 Q 24.59 94.711 24.42 87.709 A 14.556 14.556 0 0 1 24.416 87.355 A 13.742 13.742 0 0 1 24.54 85.456 Q 24.68 84.456 24.977 83.614 A 7.542 7.542 0 0 1 25.197 83.058 A 11.497 11.497 0 0 1 28.526 78.633 Q 30.698 76.913 33.791 76.396 A 17.17 17.17 0 0 1 36.623 76.174 A 23.914 23.914 0 0 1 39.091 76.293 Q 41.145 76.507 42.678 77.101 Q 36.623 70.754 36.623 65.578 A 16.317 16.317 0 0 1 37.194 61.056 Q 39.189 54.152 48.146 54.152 A 16.816 16.816 0 0 1 52.636 54.699 Q 57.774 56.125 59.159 61.273 A 16.6 16.6 0 0 1 59.67 65.578 A 10.838 10.838 0 0 1 58.782 69.712 Q 57.352 73.184 53.615 77.101 Q 55.475 76.38 58.102 76.22 A 25.721 25.721 0 0 1 59.67 76.174 A 15.546 15.546 0 0 1 64.161 76.78 A 10.767 10.767 0 0 1 71.095 83.058 A 8.466 8.466 0 0 1 71.656 84.878 Q 71.877 86.006 71.877 87.355 A 11.033 11.033 0 0 1 70.536 92.84 Q 69.292 95.062 66.891 96.683 A 16.812 16.812 0 0 1 64.748 97.902 Q 63.716 98.397 61.708 98.509 A 21.028 21.028 0 0 1 60.939 98.537 A 13.716 13.716 0 0 1 60.534 98.543 Q 52.599 98.543 49.123 89.162 A 85.048 85.048 0 0 0 49.256 94.115 Q 49.732 102.23 51.906 105.129 Z M 54.935 15.04 A 12.472 12.472 0 0 0 45.461 10.89 A 18.429 18.429 0 0 0 41.471 11.296 A 11.133 11.133 0 0 0 34.133 16.31 Q 30.715 21.73 30.715 32.033 Q 30.715 42.385 34.133 47.804 A 11.069 11.069 0 0 0 41.16 52.747 A 18.094 18.094 0 0 0 45.461 53.224 A 12.395 12.395 0 0 0 52.422 51.212 A 14.728 14.728 0 0 0 56.008 47.804 A 17.142 17.142 0 0 0 58.41 43.391 Q 60.158 38.75 60.158 32.033 Q 60.158 21.73 56.008 16.31 A 16.977 16.977 0 0 0 54.935 15.04 Z M 25.246 52.492 L 18.215 52.492 L 18.215 17.287 L 11.72 19.289 L 11.72 13.625 L 18.556 11.72 L 25.246 11.72 L 25.246 52.492 Z M 51.369 19.435 Q 48.928 15.236 45.461 15.236 A 5.574 5.574 0 0 0 41.728 16.697 Q 40.554 17.713 39.553 19.435 A 14.552 14.552 0 0 0 38.135 22.818 Q 37.169 26.153 37.073 30.953 A 53.922 53.922 0 0 0 37.062 32.033 A 46.091 46.091 0 0 0 37.259 36.449 Q 37.693 40.936 39.079 43.797 A 11.93 11.93 0 0 0 39.553 44.679 Q 41.994 48.879 45.461 48.879 A 5.574 5.574 0 0 0 49.194 47.418 Q 50.368 46.402 51.369 44.679 A 14.519 14.519 0 0 0 52.784 41.302 Q 53.752 37.956 53.848 33.125 A 54.521 54.521 0 0 0 53.859 32.033 Q 53.859 24.343 51.772 20.174 A 11.843 11.843 0 0 0 51.369 19.435 Z" vector-effect="non-scaling-stroke"/></g></svg>