<svg width="82.767" height="116.849" viewBox="0 0 82.767 116.849" xmlns="http://www.w3.org/2000/svg"><g id="svgGroup" stroke-linecap="round" fill-rule="evenodd" font-size="9pt" stroke="#000" stroke-width="0.25mm" fill="#000" style="stroke:#000;stroke-width:0.25mm;fill:#000"><path d="M 11.72 0.002 L 71.047 0.002 Q 80.346 0.002 82.266 7.381 A 17.265 17.265 0 0 1 82.765 11.72 L 82.765 105.129 Q 82.765 114.428 75.386 116.348 A 17.265 17.265 0 0 1 71.047 116.847 L 11.72 116.847 Q 2.421 116.847 0.501 109.468 A 17.265 17.265 0 0 1 0.002 105.129 L 0.002 11.72 Q 0.002 2.421 7.381 0.501 A 17.265 17.265 0 0 1 11.72 0.002 Z M 71.047 5.861 L 11.72 5.861 Q 7.071 5.861 6.111 9.551 A 8.633 8.633 0 0 0 5.861 11.72 L 5.861 105.129 Q 5.861 109.778 9.551 110.738 A 8.633 8.633 0 0 0 11.72 110.988 L 71.047 110.988 Q 75.696 110.988 76.656 107.299 A 8.633 8.633 0 0 0 76.906 105.129 L 76.906 11.72 Q 76.906 7.071 73.217 6.111 A 8.633 8.633 0 0 0 71.047 5.861 Z M 51.906 105.129 L 44.387 105.129 Q 46.97 101.684 47.155 90.877 A 100.034 100.034 0 0 0 47.17 89.162 Q 43.707 98.539 35.604 98.539 A 14.193 14.193 0 0 1 35.353 98.537 Q 32.765 98.488 31.545 97.902 Q 24.59 94.711 24.42 87.709 A 14.556 14.556 0 0 1 24.416 87.355 A 13.742 13.742 0 0 1 24.54 85.456 Q 24.68 84.456 24.977 83.614 A 7.542 7.542 0 0 1 25.197 83.058 A 11.497 11.497 0 0 1 28.526 78.633 Q 30.698 76.913 33.791 76.396 A 17.17 17.17 0 0 1 36.623 76.174 A 23.914 23.914 0 0 1 39.091 76.293 Q 41.145 76.507 42.678 77.101 Q 36.623 70.754 36.623 65.578 A 16.317 16.317 0 0 1 37.194 61.056 Q 39.189 54.152 48.146 54.152 A 16.816 16.816 0 0 1 52.636 54.699 Q 57.774 56.125 59.159 61.273 A 16.6 16.6 0 0 1 59.67 65.578 A 10.838 10.838 0 0 1 58.782 69.712 Q 57.352 73.184 53.615 77.101 Q 55.475 76.38 58.102 76.22 A 25.721 25.721 0 0 1 59.67 76.174 A 15.546 15.546 0 0 1 64.161 76.78 A 10.767 10.767 0 0 1 71.095 83.058 A 8.466 8.466 0 0 1 71.656 84.878 Q 71.877 86.006 71.877 87.355 A 11.033 11.033 0 0 1 70.536 92.84 Q 69.292 95.062 66.891 96.683 A 16.812 16.812 0 0 1 64.748 97.902 Q 63.716 98.397 61.708 98.509 A 21.028 21.028 0 0 1 60.939 98.537 A 13.716 13.716 0 0 1 60.534 98.543 Q 52.599 98.543 49.123 89.162 A 85.048 85.048 0 0 0 49.256 94.115 Q 49.732 102.23 51.906 105.129 Z M 34.67 59.816 L 27.492 53.176 A 4.621 4.621 0 0 0 27.381 53.177 Q 27.193 53.182 26.882 53.2 A 20.553 20.553 0 0 1 26.685 53.211 Q 26.406 53.224 26.222 53.224 A 17.9 17.9 0 0 1 21.589 52.661 A 12.034 12.034 0 0 1 14.723 47.975 A 16.896 16.896 0 0 1 12.427 43.308 Q 11.032 39.04 10.945 32.908 A 58.121 58.121 0 0 1 10.939 32.082 A 48.236 48.236 0 0 1 11.241 26.497 Q 12.01 19.912 14.748 16.139 A 12.33 12.33 0 0 1 22.87 11.179 A 19.103 19.103 0 0 1 26.271 10.89 Q 34.035 10.89 37.844 16.139 Q 41.502 21.182 41.646 31.249 A 58.266 58.266 0 0 1 41.652 32.082 Q 41.652 37.645 40.651 41.707 A 21.668 21.668 0 0 1 39.553 45.046 A 14.714 14.714 0 0 1 37.39 48.66 A 11.719 11.719 0 0 1 33.156 51.906 L 39.308 57.082 L 34.67 59.816 Z M 35.091 35.142 A 66.451 66.451 0 0 0 35.158 32.082 A 62.324 62.324 0 0 0 35.028 27.91 Q 34.751 23.792 33.88 21.139 A 11.734 11.734 0 0 0 33.083 19.24 A 7.185 7.185 0 0 0 30.71 16.572 Q 29.353 15.68 27.535 15.457 A 10.383 10.383 0 0 0 26.271 15.383 A 8.873 8.873 0 0 0 23.476 15.798 Q 20.983 16.622 19.597 19.08 A 9.154 9.154 0 0 0 19.509 19.24 Q 17.806 22.405 17.5 29.021 A 66.451 66.451 0 0 0 17.433 32.082 A 62.324 62.324 0 0 0 17.563 36.254 Q 17.84 40.372 18.711 43.025 A 11.734 11.734 0 0 0 19.509 44.924 A 7.269 7.269 0 0 0 21.749 47.509 Q 23.149 48.482 25.052 48.711 A 10.21 10.21 0 0 0 26.271 48.781 A 9.053 9.053 0 0 0 29.063 48.376 Q 31.68 47.53 33.083 44.924 Q 34.785 41.759 35.091 35.142 Z" vector-effect="non-scaling-stroke"/></g></svg>