<svg width="82.767" height="116.849" viewBox="0 0 82.767 116.849" xmlns="http://www.w3.org/2000/svg"><g id="svgGroup" stroke-linecap="round" fill-rule="evenodd" font-size="9pt" stroke="#ff0000" stroke-width="0.25mm" fill="#ff0000" style="stroke:#ff0000;stroke-width:0.25mm;fill:#ff0000"><path d="M 11.72 0.002 L 71.047 0.002 Q 80.346 0.002 82.266 7.381 A 17.265 17.265 0 0 1 82.765 11.72 L 82.765 105.129 Q 82.765 114.428 75.386 116.348 A 17.265 17.265 0 0 1 71.047 116.847 L 11.72 116.847 Q 2.421 116.847 0.501 109.468 A 17.265 17.265 0 0 1 0.002 105.129 L 0.002 11.72 Q 0.002 2.421 7.381 0.501 A 17.265 17.265 0 0 1 11.72 0.002 Z M 71.047 5.861 L 11.72 5.861 Q 7.071 5.861 6.111 9.551 A 8.633 8.633 0 0 0 5.861 11.72 L 5.861 105.129 Q 5.861 109.778 9.551 110.738 A 8.633 8.633 0 0 0 11.72 110.988 L 71.047 110.988 Q 75.696 110.988 76.656 107.299 A 8.633 8.633 0 0 0 76.906 105.129 L 76.906 11.72 Q 76.906 7.071 73.217 6.111 A 8.633 8.633 0 0 0 71.047 5.861 Z M 13.674 32.131 L 13.674 11.72 L 38.576 11.72 L 38.576 16.359 L 19.484 16.359 L 19.484 26.32 A 16.402 16.402 0 0 1 22.267 25.685 A 19.312 19.312 0 0 1 25.002 25.49 A 26.651 26.651 0 0 1 30.02 25.934 Q 32.921 26.491 35.216 27.745 A 14.475 14.475 0 0 1 37.453 29.25 Q 42.043 32.961 42.043 39.357 A 14.667 14.667 0 0 1 41.377 43.889 A 11.627 11.627 0 0 1 37.306 49.611 A 15.657 15.657 0 0 1 32.357 52.113 Q 30.143 52.803 27.465 53.065 A 35.411 35.411 0 0 1 24.025 53.224 A 42.21 42.21 0 0 1 18.403 52.838 A 46.327 46.327 0 0 1 18.019 52.785 A 50.994 50.994 0 0 1 12.624 51.705 A 56.971 56.971 0 0 1 11.72 51.467 L 11.72 45.949 A 27.871 27.871 0 0 0 17.531 47.951 Q 20.558 48.586 23.928 48.586 Q 28.069 48.586 30.899 47.132 A 10.089 10.089 0 0 0 32.521 46.095 A 7.974 7.974 0 0 0 35.657 40.269 A 10.645 10.645 0 0 0 35.695 39.357 Q 35.695 35.109 32.521 32.619 A 10.947 10.947 0 0 0 28.652 30.713 Q 27.078 30.275 25.208 30.165 A 21.888 21.888 0 0 0 23.928 30.129 A 26.834 26.834 0 0 0 18.849 30.617 A 28.958 28.958 0 0 0 14.823 31.708 A 33.301 33.301 0 0 0 13.674 32.131 Z M 70.021 81.349 L 50.099 106.642 L 30.08 81.349 L 50.099 55.666 L 70.021 81.349 Z" vector-effect="non-scaling-stroke"/></g></svg>