<svg width="82.767" height="116.849" viewBox="0 0 82.767 116.849" xmlns="http://www.w3.org/2000/svg"><g id="svgGroup" stroke-linecap="round" fill-rule="evenodd" font-size="9pt" stroke="#ff0000" stroke-width="0.25mm" fill="#ff0000" style="stroke:#ff0000;stroke-width:0.25mm;fill:#ff0000"><path d="M 11.72 0.002 L 71.047 0.002 Q 80.346 0.002 82.266 7.381 A 17.265 17.265 0 0 1 82.765 11.72 L 82.765 105.129 Q 82.765 114.428 75.386 116.348 A 17.265 17.265 0 0 1 71.047 116.847 L 11.72 116.847 Q 2.421 116.847 0.501 109.468 A 17.265 17.265 0 0 1 0.002 105.129 L 0.002 11.72 Q 0.002 2.421 7.381 0.501 A 17.265 17.265 0 0 1 11.72 0.002 Z M 71.047 5.861 L 11.72 5.861 Q 7.071 5.861 6.111 9.551 A 8.633 8.633 0 0 0 5.861 11.72 L 5.861 105.129 Q 5.861 109.778 9.551 110.738 A 8.633 8.633 0 0 0 11.72 110.988 L 71.047 110.988 Q 75.696 110.988 76.656 107.299 A 8.633 8.633 0 0 0 76.906 105.129 L 76.906 11.72 Q 76.906 7.071 73.217 6.111 A 8.633 8.633 0 0 0 71.047 5.861 Z M 41.066 12.502 L 41.066 17.531 A 26.554 26.554 0 0 0 36.232 16.066 Q 33.791 15.529 31.398 15.529 A 17.085 17.085 0 0 0 27.612 15.923 Q 24.947 16.529 23.026 18.064 A 10.272 10.272 0 0 0 21.828 19.191 A 12.763 12.763 0 0 0 19.53 22.991 Q 18.82 24.762 18.426 26.952 A 30.627 30.627 0 0 0 18.019 30.373 Q 19.875 27.98 22.658 26.711 A 14.702 14.702 0 0 1 28.192 25.452 A 17.021 17.021 0 0 1 28.81 25.441 A 21.81 21.81 0 0 1 33.42 25.9 Q 36.408 26.546 38.665 28.102 A 12.829 12.829 0 0 1 39.992 29.152 A 12.411 12.411 0 0 1 43.897 36.666 A 17.77 17.77 0 0 1 44.094 39.357 Q 44.094 45.558 39.797 49.416 A 14.442 14.442 0 0 1 33.286 52.711 A 21.342 21.342 0 0 1 28.469 53.224 A 19.529 19.529 0 0 1 23.318 52.584 A 13.657 13.657 0 0 1 16.017 47.804 Q 12.735 43.664 11.96 36.647 A 42.091 42.091 0 0 1 11.72 32.033 A 28.726 28.726 0 0 1 12.402 25.595 Q 13.559 20.56 16.682 16.999 A 18.369 18.369 0 0 1 16.994 16.652 A 17.43 17.43 0 0 1 27.949 11.093 A 24.561 24.561 0 0 1 31.154 10.89 Q 33.547 10.89 35.988 11.281 A 45.551 45.551 0 0 1 39.598 12.089 A 53.188 53.188 0 0 1 41.066 12.502 Z M 70.021 81.349 L 50.099 106.642 L 30.08 81.349 L 50.099 55.666 L 70.021 81.349 Z M 28.469 29.787 A 11.749 11.749 0 0 0 25.613 30.115 A 8.158 8.158 0 0 0 21.681 32.326 A 8.634 8.634 0 0 0 19.499 36.462 A 12.856 12.856 0 0 0 19.191 39.357 A 12.507 12.507 0 0 0 19.509 42.262 A 8.413 8.413 0 0 0 21.681 46.291 Q 24.172 48.879 28.469 48.879 A 11.257 11.257 0 0 0 31.379 48.522 A 8.104 8.104 0 0 0 35.207 46.291 Q 37.697 43.752 37.697 39.357 A 12.801 12.801 0 0 0 37.375 36.403 A 8.618 8.618 0 0 0 35.207 32.326 A 8.28 8.28 0 0 0 30.734 29.991 A 12.022 12.022 0 0 0 28.469 29.787 Z" vector-effect="non-scaling-stroke"/></g></svg>