<svg width="82.767" height="116.849" viewBox="0 0 82.767 116.849" xmlns="http://www.w3.org/2000/svg"><g id="svgGroup" stroke-linecap="round" fill-rule="evenodd" font-size="9pt" stroke="#ff0000" stroke-width="0.25mm" fill="#ff0000" style="stroke:#ff0000;stroke-width:0.25mm;fill:#ff0000"><path d="M 11.72 0.002 L 71.047 0.002 Q 80.346 0.002 82.266 7.381 A 17.265 17.265 0 0 1 82.765 11.72 L 82.765 105.129 Q 82.765 114.428 75.386 116.348 A 17.265 17.265 0 0 1 71.047 116.847 L 11.72 116.847 Q 2.421 116.847 0.501 109.468 A 17.265 17.265 0 0 1 0.002 105.129 L 0.002 11.72 Q 0.002 2.421 7.381 0.501 A 17.265 17.265 0 0 1 11.72 0.002 Z M 71.047 5.861 L 11.72 5.861 Q 7.071 5.861 6.111 9.551 A 8.633 8.633 0 0 0 5.861 11.72 L 5.861 105.129 Q 5.861 109.778 9.551 110.738 A 8.633 8.633 0 0 0 11.72 110.988 L 71.047 110.988 Q 75.696 110.988 76.656 107.299 A 8.633 8.633 0 0 0 76.906 105.129 L 76.906 11.72 Q 76.906 7.071 73.217 6.111 A 8.633 8.633 0 0 0 71.047 5.861 Z M 34.67 59.816 L 27.492 53.176 A 4.621 4.621 0 0 0 27.381 53.177 Q 27.193 53.182 26.882 53.2 A 20.553 20.553 0 0 1 26.685 53.211 Q 26.406 53.224 26.222 53.224 A 17.9 17.9 0 0 1 21.589 52.661 A 12.034 12.034 0 0 1 14.723 47.975 A 16.896 16.896 0 0 1 12.427 43.308 Q 11.032 39.04 10.945 32.908 A 58.121 58.121 0 0 1 10.939 32.082 A 48.236 48.236 0 0 1 11.241 26.497 Q 12.01 19.912 14.748 16.139 A 12.33 12.33 0 0 1 22.87 11.179 A 19.103 19.103 0 0 1 26.271 10.89 Q 34.035 10.89 37.844 16.139 Q 41.502 21.182 41.646 31.249 A 58.266 58.266 0 0 1 41.652 32.082 Q 41.652 37.645 40.651 41.707 A 21.668 21.668 0 0 1 39.553 45.046 A 14.714 14.714 0 0 1 37.39 48.66 A 11.719 11.719 0 0 1 33.156 51.906 L 39.308 57.082 L 34.67 59.816 Z M 70.021 81.349 L 50.099 106.642 L 30.08 81.349 L 50.099 55.666 L 70.021 81.349 Z M 35.091 35.142 A 66.451 66.451 0 0 0 35.158 32.082 A 62.324 62.324 0 0 0 35.028 27.91 Q 34.751 23.792 33.88 21.139 A 11.734 11.734 0 0 0 33.083 19.24 A 7.185 7.185 0 0 0 30.71 16.572 Q 29.353 15.68 27.535 15.457 A 10.383 10.383 0 0 0 26.271 15.383 A 8.873 8.873 0 0 0 23.476 15.798 Q 20.983 16.622 19.597 19.08 A 9.154 9.154 0 0 0 19.509 19.24 Q 17.806 22.405 17.5 29.021 A 66.451 66.451 0 0 0 17.433 32.082 A 62.324 62.324 0 0 0 17.563 36.254 Q 17.84 40.372 18.711 43.025 A 11.734 11.734 0 0 0 19.509 44.924 A 7.269 7.269 0 0 0 21.749 47.509 Q 23.149 48.482 25.052 48.711 A 10.21 10.21 0 0 0 26.271 48.781 A 9.053 9.053 0 0 0 29.063 48.376 Q 31.68 47.53 33.083 44.924 Q 34.785 41.759 35.091 35.142 Z" vector-effect="non-scaling-stroke"/></g></svg>