<svg width="82.767" height="116.849" viewBox="0 0 82.767 116.849" xmlns="http://www.w3.org/2000/svg"><g id="svgGroup" stroke-linecap="round" fill-rule="evenodd" font-size="9pt" stroke="#ff0000" stroke-width="0.25mm" fill="#ff0000" style="stroke:#ff0000;stroke-width:0.25mm;fill:#ff0000"><path d="M 11.72 0.002 L 71.047 0.002 Q 80.346 0.002 82.266 7.381 A 17.265 17.265 0 0 1 82.765 11.72 L 82.765 105.129 Q 82.765 114.428 75.386 116.348 A 17.265 17.265 0 0 1 71.047 116.847 L 11.72 116.847 Q 2.421 116.847 0.501 109.468 A 17.265 17.265 0 0 1 0.002 105.129 L 0.002 11.72 Q 0.002 2.421 7.381 0.501 A 17.265 17.265 0 0 1 11.72 0.002 Z M 71.047 5.861 L 11.72 5.861 Q 7.071 5.861 6.111 9.551 A 8.633 8.633 0 0 0 5.861 11.72 L 5.861 105.129 Q 5.861 109.778 9.551 110.738 A 8.633 8.633 0 0 0 11.72 110.988 L 71.047 110.988 Q 75.696 110.988 76.656 107.299 A 8.633 8.633 0 0 0 76.906 105.129 L 76.906 11.72 Q 76.906 7.071 73.217 6.111 A 8.633 8.633 0 0 0 71.047 5.861 Z M 11.72 52.541 L 11.72 11.72 L 17.922 11.72 L 17.922 28.957 L 35.597 11.72 L 43.605 11.72 L 23.732 30.763 L 45.217 52.541 L 37.062 52.541 L 17.922 32.863 L 17.922 52.541 L 11.72 52.541 Z M 70.021 81.349 L 50.099 106.642 L 30.08 81.349 L 50.099 55.666 L 70.021 81.349 Z" vector-effect="non-scaling-stroke"/></g></svg>