<svg width="82.767" height="116.849" viewBox="0 0 82.767 116.849" xmlns="http://www.w3.org/2000/svg"><g id="svgGroup" stroke-linecap="round" fill-rule="evenodd" font-size="9pt" stroke="#ff0000" stroke-width="0.25mm" fill="#ff0000" style="stroke:#ff0000;stroke-width:0.25mm;fill:#ff0000"><path d="M 11.72 0.002 L 71.047 0.002 Q 80.346 0.002 82.266 7.381 A 17.265 17.265 0 0 1 82.765 11.72 L 82.765 105.129 Q 82.765 114.428 75.386 116.348 A 17.265 17.265 0 0 1 71.047 116.847 L 11.72 116.847 Q 2.421 116.847 0.501 109.468 A 17.265 17.265 0 0 1 0.002 105.129 L 0.002 11.72 Q 0.002 2.421 7.381 0.501 A 17.265 17.265 0 0 1 11.72 0.002 Z M 71.047 5.861 L 11.72 5.861 Q 7.071 5.861 6.111 9.551 A 8.633 8.633 0 0 0 5.861 11.72 L 5.861 105.129 Q 5.861 109.778 9.551 110.738 A 8.633 8.633 0 0 0 11.72 110.988 L 71.047 110.988 Q 75.696 110.988 76.656 107.299 A 8.633 8.633 0 0 0 76.906 105.129 L 76.906 11.72 Q 76.906 7.071 73.217 6.111 A 8.633 8.633 0 0 0 71.047 5.861 Z M 11.72 51.222 L 11.72 45.314 A 21.9 21.9 0 0 0 17.165 47.267 A 27.861 27.861 0 0 0 21.729 47.862 A 32.359 32.359 0 0 0 23.342 47.902 Q 26.834 47.902 29.297 47.071 A 9.925 9.925 0 0 0 31.594 45.973 A 6.832 6.832 0 0 0 33.435 44.239 Q 34.455 42.805 34.519 40.885 A 7.782 7.782 0 0 0 34.523 40.627 A 7.636 7.636 0 0 0 34.188 38.303 A 5.902 5.902 0 0 0 31.813 35.158 Q 29.103 33.303 23.83 33.303 L 19.631 33.303 L 19.631 28.029 L 24.22 28.029 A 21.985 21.985 0 0 0 26.75 27.894 Q 29.443 27.581 31.092 26.546 A 6.442 6.442 0 0 0 31.178 26.491 A 5.151 5.151 0 0 0 32.858 24.777 Q 33.547 23.603 33.547 22.023 Q 33.547 19.431 31.501 17.964 A 6.372 6.372 0 0 0 31.105 17.702 A 8.595 8.595 0 0 0 29.016 16.809 Q 26.961 16.213 24.025 16.213 A 20.745 20.745 0 0 0 22.213 16.297 Q 21.29 16.378 20.272 16.537 A 35.81 35.81 0 0 0 19.582 16.652 Q 17.147 17.082 13.311 18.165 A 129.62 129.62 0 0 0 13.137 18.215 L 13.137 12.599 A 83.957 83.957 0 0 1 17.214 11.751 A 67.166 67.166 0 0 1 19.826 11.33 A 46.575 46.575 0 0 1 23.203 10.975 A 36.54 36.54 0 0 1 25.637 10.89 A 27.832 27.832 0 0 1 30.08 11.223 Q 34.07 11.869 36.794 13.771 A 10.184 10.184 0 0 1 39.388 16.32 Q 40.92 18.54 40.92 21.486 A 8.549 8.549 0 0 1 40.318 24.732 A 7.977 7.977 0 0 1 38.722 27.199 A 9.917 9.917 0 0 1 35.729 29.348 Q 34.304 30.03 32.521 30.422 A 16.068 16.068 0 0 1 35.664 31.356 Q 37.957 32.319 39.479 33.962 A 9.181 9.181 0 0 1 41.902 39.587 A 12.189 12.189 0 0 1 41.945 40.627 A 12.585 12.585 0 0 1 41.293 44.776 A 10.428 10.428 0 0 1 37.306 49.953 A 15.687 15.687 0 0 1 32.877 52.071 Q 29.157 53.224 24.025 53.224 A 33.697 33.697 0 0 1 19.886 52.96 A 39.614 39.614 0 0 1 18.19 52.712 A 55.075 55.075 0 0 1 14.232 51.89 A 67.783 67.783 0 0 1 11.72 51.222 Z M 65.724 87.013 L 50.295 106.642 L 34.67 87.013 A 32.223 32.223 0 0 1 30.95 81.243 Q 28.864 77.021 28.603 72.755 A 19.989 19.989 0 0 1 28.566 71.535 A 15.231 15.231 0 0 1 28.77 68.984 A 11.371 11.371 0 0 1 29.494 66.457 A 15.385 15.385 0 0 1 31.482 62.981 A 9.429 9.429 0 0 1 39.308 59.181 A 8.855 8.855 0 0 1 45.924 62.078 A 12.211 12.211 0 0 1 46.437 62.648 A 14.556 14.556 0 0 1 48.54 66.026 Q 49.275 67.635 49.783 69.589 A 29.151 29.151 0 0 1 50.197 71.437 Q 50.959 67.35 52.532 64.638 A 12.249 12.249 0 0 1 53.957 62.648 A 11.049 11.049 0 0 1 56.459 60.485 A 8.637 8.637 0 0 1 61.086 59.181 A 9.642 9.642 0 0 1 66.544 60.727 Q 68.332 61.914 69.649 64.01 A 16.523 16.523 0 0 1 70.9 66.457 Q 71.828 68.654 71.828 71.535 Q 71.828 78.835 66.362 86.18 A 39.66 39.66 0 0 1 65.724 87.013 Z" vector-effect="non-scaling-stroke"/></g></svg>