<svg width="82.767" height="116.849" viewBox="0 0 82.767 116.849" xmlns="http://www.w3.org/2000/svg"><g id="svgGroup" stroke-linecap="round" fill-rule="evenodd" font-size="9pt" stroke="#ff0000" stroke-width="0.25mm" fill="#ff0000" style="stroke:#ff0000;stroke-width:0.25mm;fill:#ff0000"><path d="M 11.72 0.002 L 71.047 0.002 Q 80.346 0.002 82.266 7.381 A 17.265 17.265 0 0 1 82.765 11.72 L 82.765 105.129 Q 82.765 114.428 75.386 116.348 A 17.265 17.265 0 0 1 71.047 116.847 L 11.72 116.847 Q 2.421 116.847 0.501 109.468 A 17.265 17.265 0 0 1 0.002 105.129 L 0.002 11.72 Q 0.002 2.421 7.381 0.501 A 17.265 17.265 0 0 1 11.72 0.002 Z M 71.047 5.861 L 11.72 5.861 Q 7.071 5.861 6.111 9.551 A 8.633 8.633 0 0 0 5.861 11.72 L 5.861 105.129 Q 5.861 109.778 9.551 110.738 A 8.633 8.633 0 0 0 11.72 110.988 L 71.047 110.988 Q 75.696 110.988 76.656 107.299 A 8.633 8.633 0 0 0 76.906 105.129 L 76.906 11.72 Q 76.906 7.071 73.217 6.111 A 8.633 8.633 0 0 0 71.047 5.861 Z M 13.674 32.131 L 13.674 11.72 L 38.576 11.72 L 38.576 16.359 L 19.484 16.359 L 19.484 26.32 A 16.402 16.402 0 0 1 22.267 25.685 A 19.312 19.312 0 0 1 25.002 25.49 A 26.651 26.651 0 0 1 30.02 25.934 Q 32.921 26.491 35.216 27.745 A 14.475 14.475 0 0 1 37.453 29.25 Q 42.043 32.961 42.043 39.357 A 14.667 14.667 0 0 1 41.377 43.889 A 11.627 11.627 0 0 1 37.306 49.611 A 15.657 15.657 0 0 1 32.357 52.113 Q 30.143 52.803 27.465 53.065 A 35.411 35.411 0 0 1 24.025 53.224 A 42.21 42.21 0 0 1 18.403 52.838 A 46.327 46.327 0 0 1 18.019 52.785 A 50.994 50.994 0 0 1 12.624 51.705 A 56.971 56.971 0 0 1 11.72 51.467 L 11.72 45.949 A 27.871 27.871 0 0 0 17.531 47.951 Q 20.558 48.586 23.928 48.586 Q 28.069 48.586 30.899 47.132 A 10.089 10.089 0 0 0 32.521 46.095 A 7.974 7.974 0 0 0 35.657 40.269 A 10.645 10.645 0 0 0 35.695 39.357 Q 35.695 35.109 32.521 32.619 A 10.947 10.947 0 0 0 28.652 30.713 Q 27.078 30.275 25.208 30.165 A 21.888 21.888 0 0 0 23.928 30.129 A 26.834 26.834 0 0 0 18.849 30.617 A 28.958 28.958 0 0 0 14.823 31.708 A 33.301 33.301 0 0 0 13.674 32.131 Z M 65.724 87.013 L 50.295 106.642 L 34.67 87.013 A 32.223 32.223 0 0 1 30.95 81.243 Q 28.864 77.021 28.603 72.755 A 19.989 19.989 0 0 1 28.566 71.535 A 15.231 15.231 0 0 1 28.77 68.984 A 11.371 11.371 0 0 1 29.494 66.457 A 15.385 15.385 0 0 1 31.482 62.981 A 9.429 9.429 0 0 1 39.308 59.181 A 8.855 8.855 0 0 1 45.924 62.078 A 12.211 12.211 0 0 1 46.437 62.648 A 14.556 14.556 0 0 1 48.54 66.026 Q 49.275 67.635 49.783 69.589 A 29.151 29.151 0 0 1 50.197 71.437 Q 50.959 67.35 52.532 64.638 A 12.249 12.249 0 0 1 53.957 62.648 A 11.049 11.049 0 0 1 56.459 60.485 A 8.637 8.637 0 0 1 61.086 59.181 A 9.642 9.642 0 0 1 66.544 60.727 Q 68.332 61.914 69.649 64.01 A 16.523 16.523 0 0 1 70.9 66.457 Q 71.828 68.654 71.828 71.535 Q 71.828 78.835 66.362 86.18 A 39.66 39.66 0 0 1 65.724 87.013 Z" vector-effect="non-scaling-stroke"/></g></svg>