<svg width="82.767" height="116.849" viewBox="0 0 82.767 116.849" xmlns="http://www.w3.org/2000/svg"><g id="svgGroup" stroke-linecap="round" fill-rule="evenodd" font-size="9pt" stroke="#ff0000" stroke-width="0.25mm" fill="#ff0000" style="stroke:#ff0000;stroke-width:0.25mm;fill:#ff0000"><path d="M 11.72 0.002 L 71.047 0.002 Q 80.346 0.002 82.266 7.381 A 17.265 17.265 0 0 1 82.765 11.72 L 82.765 105.129 Q 82.765 114.428 75.386 116.348 A 17.265 17.265 0 0 1 71.047 116.847 L 11.72 116.847 Q 2.421 116.847 0.501 109.468 A 17.265 17.265 0 0 1 0.002 105.129 L 0.002 11.72 Q 0.002 2.421 7.381 0.501 A 17.265 17.265 0 0 1 11.72 0.002 Z M 71.047 5.861 L 11.72 5.861 Q 7.071 5.861 6.111 9.551 A 8.633 8.633 0 0 0 5.861 11.72 L 5.861 105.129 Q 5.861 109.778 9.551 110.738 A 8.633 8.633 0 0 0 11.72 110.988 L 71.047 110.988 Q 75.696 110.988 76.656 107.299 A 8.633 8.633 0 0 0 76.906 105.129 L 76.906 11.72 Q 76.906 7.071 73.217 6.111 A 8.633 8.633 0 0 0 71.047 5.861 Z M 65.724 87.013 L 50.295 106.642 L 34.67 87.013 A 32.223 32.223 0 0 1 30.95 81.243 Q 28.864 77.021 28.603 72.755 A 19.989 19.989 0 0 1 28.566 71.535 A 15.231 15.231 0 0 1 28.77 68.984 A 11.371 11.371 0 0 1 29.494 66.457 A 15.385 15.385 0 0 1 31.482 62.981 A 9.429 9.429 0 0 1 39.308 59.181 A 8.855 8.855 0 0 1 45.924 62.078 A 12.211 12.211 0 0 1 46.437 62.648 A 14.556 14.556 0 0 1 48.54 66.026 Q 49.275 67.635 49.783 69.589 A 29.151 29.151 0 0 1 50.197 71.437 Q 50.959 67.35 52.532 64.638 A 12.249 12.249 0 0 1 53.957 62.648 A 11.049 11.049 0 0 1 56.459 60.485 A 8.637 8.637 0 0 1 61.086 59.181 A 9.642 9.642 0 0 1 66.544 60.727 Q 68.332 61.914 69.649 64.01 A 16.523 16.523 0 0 1 70.9 66.457 Q 71.828 68.654 71.828 71.535 Q 71.828 78.835 66.362 86.18 A 39.66 39.66 0 0 1 65.724 87.013 Z M 54.935 15.04 A 12.472 12.472 0 0 0 45.461 10.89 A 18.429 18.429 0 0 0 41.471 11.296 A 11.133 11.133 0 0 0 34.133 16.31 Q 30.715 21.73 30.715 32.033 Q 30.715 42.385 34.133 47.804 A 11.069 11.069 0 0 0 41.16 52.747 A 18.094 18.094 0 0 0 45.461 53.224 A 12.395 12.395 0 0 0 52.422 51.212 A 14.728 14.728 0 0 0 56.008 47.804 A 17.142 17.142 0 0 0 58.41 43.391 Q 60.158 38.75 60.158 32.033 Q 60.158 21.73 56.008 16.31 A 16.977 16.977 0 0 0 54.935 15.04 Z M 25.246 52.492 L 18.215 52.492 L 18.215 17.287 L 11.72 19.289 L 11.72 13.625 L 18.556 11.72 L 25.246 11.72 L 25.246 52.492 Z M 51.369 19.435 Q 48.928 15.236 45.461 15.236 A 5.574 5.574 0 0 0 41.728 16.697 Q 40.554 17.713 39.553 19.435 A 14.552 14.552 0 0 0 38.135 22.818 Q 37.169 26.153 37.073 30.953 A 53.922 53.922 0 0 0 37.062 32.033 A 46.091 46.091 0 0 0 37.259 36.449 Q 37.693 40.936 39.079 43.797 A 11.93 11.93 0 0 0 39.553 44.679 Q 41.994 48.879 45.461 48.879 A 5.574 5.574 0 0 0 49.194 47.418 Q 50.368 46.402 51.369 44.679 A 14.519 14.519 0 0 0 52.784 41.302 Q 53.752 37.956 53.848 33.125 A 54.521 54.521 0 0 0 53.859 32.033 Q 53.859 24.343 51.772 20.174 A 11.843 11.843 0 0 0 51.369 19.435 Z" vector-effect="non-scaling-stroke"/></g></svg>