<svg width="82.767" height="116.849" viewBox="0 0 82.767 116.849" xmlns="http://www.w3.org/2000/svg"><g id="svgGroup" stroke-linecap="round" fill-rule="evenodd" font-size="9pt" stroke="#ff0000" stroke-width="0.25mm" fill="#ff0000" style="stroke:#ff0000;stroke-width:0.25mm;fill:#ff0000"><path d="M 11.72 0.002 L 71.047 0.002 Q 80.346 0.002 82.266 7.381 A 17.265 17.265 0 0 1 82.765 11.72 L 82.765 105.129 Q 82.765 114.428 75.386 116.348 A 17.265 17.265 0 0 1 71.047 116.847 L 11.72 116.847 Q 2.421 116.847 0.501 109.468 A 17.265 17.265 0 0 1 0.002 105.129 L 0.002 11.72 Q 0.002 2.421 7.381 0.501 A 17.265 17.265 0 0 1 11.72 0.002 Z M 71.047 5.861 L 11.72 5.861 Q 7.071 5.861 6.111 9.551 A 8.633 8.633 0 0 0 5.861 11.72 L 5.861 105.129 Q 5.861 109.778 9.551 110.738 A 8.633 8.633 0 0 0 11.72 110.988 L 71.047 110.988 Q 75.696 110.988 76.656 107.299 A 8.633 8.633 0 0 0 76.906 105.129 L 76.906 11.72 Q 76.906 7.071 73.217 6.111 A 8.633 8.633 0 0 0 71.047 5.861 Z M 64.894 87.013 L 49.465 106.642 L 33.84 87.013 A 32.223 32.223 0 0 1 30.12 81.243 Q 28.034 77.021 27.773 72.755 A 19.989 19.989 0 0 1 27.736 71.535 A 15.231 15.231 0 0 1 27.94 68.984 A 11.371 11.371 0 0 1 28.664 66.457 A 15.385 15.385 0 0 1 30.652 62.981 A 9.429 9.429 0 0 1 38.478 59.181 A 8.855 8.855 0 0 1 45.094 62.078 A 12.211 12.211 0 0 1 45.607 62.648 A 14.556 14.556 0 0 1 47.71 66.026 Q 48.445 67.635 48.953 69.589 A 29.151 29.151 0 0 1 49.367 71.437 Q 50.129 67.35 51.702 64.638 A 12.249 12.249 0 0 1 53.127 62.648 A 11.049 11.049 0 0 1 55.629 60.485 A 8.637 8.637 0 0 1 60.256 59.181 A 9.642 9.642 0 0 1 65.714 60.727 Q 67.502 61.914 68.819 64.01 A 16.523 16.523 0 0 1 70.07 66.457 Q 70.998 68.654 70.998 71.535 Q 70.998 78.835 65.532 86.18 A 39.66 39.66 0 0 1 64.894 87.013 Z M 33.84 59.816 L 26.662 53.176 A 4.621 4.621 0 0 0 26.551 53.177 Q 26.363 53.182 26.052 53.2 A 20.553 20.553 0 0 1 25.855 53.211 Q 25.575 53.224 25.392 53.224 A 17.9 17.9 0 0 1 20.759 52.661 A 12.034 12.034 0 0 1 13.893 47.975 A 16.896 16.896 0 0 1 11.597 43.308 Q 10.202 39.04 10.115 32.908 A 58.121 58.121 0 0 1 10.109 32.082 A 48.236 48.236 0 0 1 10.41 26.497 Q 11.18 19.912 13.918 16.139 A 12.33 12.33 0 0 1 22.039 11.179 A 19.103 19.103 0 0 1 25.441 10.89 Q 33.205 10.89 37.013 16.139 Q 40.672 21.182 40.816 31.249 A 58.266 58.266 0 0 1 40.822 32.082 Q 40.822 37.645 39.821 41.707 A 21.668 21.668 0 0 1 38.722 45.046 A 14.714 14.714 0 0 1 36.56 48.66 A 11.719 11.719 0 0 1 32.326 51.906 L 38.478 57.082 L 33.84 59.816 Z M 34.261 35.142 A 66.451 66.451 0 0 0 34.328 32.082 A 62.324 62.324 0 0 0 34.198 27.91 Q 33.921 23.792 33.05 21.139 A 11.734 11.734 0 0 0 32.253 19.24 A 7.185 7.185 0 0 0 29.88 16.572 Q 28.523 15.68 26.705 15.457 A 10.383 10.383 0 0 0 25.441 15.383 A 8.873 8.873 0 0 0 22.646 15.798 Q 20.153 16.622 18.767 19.08 A 9.154 9.154 0 0 0 18.678 19.24 Q 16.976 22.405 16.67 29.021 A 66.451 66.451 0 0 0 16.603 32.082 A 62.324 62.324 0 0 0 16.733 36.254 Q 17.01 40.372 17.881 43.025 A 11.734 11.734 0 0 0 18.678 44.924 A 7.269 7.269 0 0 0 20.919 47.509 Q 22.319 48.482 24.222 48.711 A 10.21 10.21 0 0 0 25.441 48.781 A 9.053 9.053 0 0 0 28.233 48.376 Q 30.85 47.53 32.253 44.924 Q 33.955 41.759 34.261 35.142 Z" vector-effect="non-scaling-stroke"/></g></svg>