<svg width="82.767" height="116.849" viewBox="0 0 82.767 116.849" xmlns="http://www.w3.org/2000/svg"><g id="svgGroup" stroke-linecap="round" fill-rule="evenodd" font-size="9pt" stroke="#000" stroke-width="0.25mm" fill="#000" style="stroke:#000;stroke-width:0.25mm;fill:#000"><path d="M 11.72 0.002 L 71.047 0.002 Q 80.346 0.002 82.266 7.381 A 17.265 17.265 0 0 1 82.765 11.72 L 82.765 105.129 Q 82.765 114.428 75.386 116.348 A 17.265 17.265 0 0 1 71.047 116.847 L 11.72 116.847 Q 2.421 116.847 0.501 109.468 A 17.265 17.265 0 0 1 0.002 105.129 L 0.002 11.72 Q 0.002 2.421 7.381 0.501 A 17.265 17.265 0 0 1 11.72 0.002 Z M 71.047 5.861 L 11.72 5.861 Q 7.071 5.861 6.111 9.551 A 8.633 8.633 0 0 0 5.861 11.72 L 5.861 105.129 Q 5.861 109.778 9.551 110.738 A 8.633 8.633 0 0 0 11.72 110.988 L 71.047 110.988 Q 75.696 110.988 76.656 107.299 A 8.633 8.633 0 0 0 76.906 105.129 L 76.906 11.72 Q 76.906 7.071 73.217 6.111 A 8.633 8.633 0 0 0 71.047 5.861 Z M 20.217 46.926 L 40.92 46.926 L 40.92 52.492 L 11.72 52.492 L 11.72 47.121 A 260.636 260.636 0 0 1 12.639 46.288 Q 13.678 45.35 15.093 44.088 A 1012.168 1012.168 0 0 1 16.457 42.873 A 227.406 227.406 0 0 0 22.165 37.65 Q 32.665 27.679 33.222 23.806 A 2.917 2.917 0 0 0 33.254 23.39 A 6.592 6.592 0 0 0 32.677 20.602 Q 32.063 19.268 30.797 18.255 A 8.072 8.072 0 0 0 30.715 18.19 Q 28.351 16.349 24.59 16.222 A 16.738 16.738 0 0 0 24.025 16.213 A 17.475 17.475 0 0 0 21.203 16.454 A 23.647 23.647 0 0 0 18.508 17.067 Q 15.529 17.922 12.013 19.631 L 12.013 13.625 A 59.794 59.794 0 0 1 15.645 12.428 A 45.151 45.151 0 0 1 19.02 11.574 A 33.297 33.297 0 0 1 22.339 11.041 A 25.549 25.549 0 0 1 25.051 10.89 Q 30.624 10.89 34.443 12.888 A 13.705 13.705 0 0 1 36.379 14.113 Q 40.627 17.336 40.627 22.609 A 9.221 9.221 0 0 1 39.585 26.512 Q 36.523 32.917 24.465 43.263 A 1374.988 1374.988 0 0 0 23.174 44.371 Q 21.352 45.937 20.217 46.926 Z M 53.029 89.943 L 51.564 89.943 A 55.438 55.438 0 0 0 51.818 95.44 Q 52.376 101.019 54.159 104.584 A 15.341 15.341 0 0 0 54.445 105.129 L 47.023 105.129 A 19.105 19.105 0 0 0 48.663 100.977 Q 49.817 96.797 49.898 90.855 A 66.636 66.636 0 0 0 49.904 89.943 L 48.439 89.943 Q 46.836 93.709 44.725 95.601 A 6.984 6.984 0 0 1 39.943 97.512 A 11.549 11.549 0 0 1 35.89 96.859 Q 30.422 94.815 30.422 86.379 A 17.538 17.538 0 0 1 30.526 84.395 Q 30.76 82.343 31.521 81.092 A 4.692 4.692 0 0 1 31.74 80.763 A 4.227 4.227 0 0 1 32.16 79.802 Q 33.354 77.628 37.742 72.121 A 291.188 291.188 0 0 1 39.87 69.484 A 194.061 194.061 0 0 0 43.433 64.992 Q 47.2 60.085 49.479 56.338 A 47.431 47.431 0 0 0 50.734 54.152 Q 53.477 59.258 59.593 66.989 A 210.776 210.776 0 0 0 61.598 69.484 A 275.745 275.745 0 0 1 64.227 72.752 Q 68.95 78.723 69.638 80.483 A 2.136 2.136 0 0 1 69.728 80.763 Q 70.963 82.455 71.041 85.901 A 20.92 20.92 0 0 1 71.047 86.379 A 18.953 18.953 0 0 1 70.627 90.563 Q 69.048 97.512 61.525 97.512 Q 57.32 97.512 54.418 92.698 A 22.148 22.148 0 0 1 53.029 89.943 Z" vector-effect="non-scaling-stroke"/></g></svg>