<svg width="82.767" height="116.849" viewBox="0 0 82.767 116.849" xmlns="http://www.w3.org/2000/svg"><g id="svgGroup" stroke-linecap="round" fill-rule="evenodd" font-size="9pt" stroke="#000" stroke-width="0.25mm" fill="#000" style="stroke:#000;stroke-width:0.25mm;fill:#000"><path d="M 11.72 0.002 L 71.047 0.002 Q 80.346 0.002 82.266 7.381 A 17.265 17.265 0 0 1 82.765 11.72 L 82.765 105.129 Q 82.765 114.428 75.386 116.348 A 17.265 17.265 0 0 1 71.047 116.847 L 11.72 116.847 Q 2.421 116.847 0.501 109.468 A 17.265 17.265 0 0 1 0.002 105.129 L 0.002 11.72 Q 0.002 2.421 7.381 0.501 A 17.265 17.265 0 0 1 11.72 0.002 Z M 71.047 5.861 L 11.72 5.861 Q 7.071 5.861 6.111 9.551 A 8.633 8.633 0 0 0 5.861 11.72 L 5.861 105.129 Q 5.861 109.778 9.551 110.738 A 8.633 8.633 0 0 0 11.72 110.988 L 71.047 110.988 Q 75.696 110.988 76.656 107.299 A 8.633 8.633 0 0 0 76.906 105.129 L 76.906 11.72 Q 76.906 7.071 73.217 6.111 A 8.633 8.633 0 0 0 71.047 5.861 Z M 11.72 51.222 L 11.72 45.314 A 21.9 21.9 0 0 0 17.165 47.267 A 27.861 27.861 0 0 0 21.729 47.862 A 32.359 32.359 0 0 0 23.342 47.902 Q 26.834 47.902 29.297 47.071 A 9.925 9.925 0 0 0 31.594 45.973 A 6.832 6.832 0 0 0 33.435 44.239 Q 34.455 42.805 34.519 40.885 A 7.782 7.782 0 0 0 34.523 40.627 A 7.636 7.636 0 0 0 34.188 38.303 A 5.902 5.902 0 0 0 31.813 35.158 Q 29.103 33.303 23.83 33.303 L 19.631 33.303 L 19.631 28.029 L 24.22 28.029 A 21.985 21.985 0 0 0 26.75 27.894 Q 29.443 27.581 31.092 26.546 A 6.442 6.442 0 0 0 31.178 26.491 A 5.151 5.151 0 0 0 32.858 24.777 Q 33.547 23.603 33.547 22.023 Q 33.547 19.431 31.501 17.964 A 6.372 6.372 0 0 0 31.105 17.702 A 8.595 8.595 0 0 0 29.016 16.809 Q 26.961 16.213 24.025 16.213 A 20.745 20.745 0 0 0 22.213 16.297 Q 21.29 16.378 20.272 16.537 A 35.81 35.81 0 0 0 19.582 16.652 Q 17.147 17.082 13.311 18.165 A 129.62 129.62 0 0 0 13.137 18.215 L 13.137 12.599 A 83.957 83.957 0 0 1 17.214 11.751 A 67.166 67.166 0 0 1 19.826 11.33 A 46.575 46.575 0 0 1 23.203 10.975 A 36.54 36.54 0 0 1 25.637 10.89 A 27.832 27.832 0 0 1 30.08 11.223 Q 34.07 11.869 36.794 13.771 A 10.184 10.184 0 0 1 39.388 16.32 Q 40.92 18.54 40.92 21.486 A 8.549 8.549 0 0 1 40.318 24.732 A 7.977 7.977 0 0 1 38.722 27.199 A 9.917 9.917 0 0 1 35.729 29.348 Q 34.304 30.03 32.521 30.422 A 16.068 16.068 0 0 1 35.664 31.356 Q 37.957 32.319 39.479 33.962 A 9.181 9.181 0 0 1 41.902 39.587 A 12.189 12.189 0 0 1 41.945 40.627 A 12.585 12.585 0 0 1 41.293 44.776 A 10.428 10.428 0 0 1 37.306 49.953 A 15.687 15.687 0 0 1 32.877 52.071 Q 29.157 53.224 24.025 53.224 A 33.697 33.697 0 0 1 19.886 52.96 A 39.614 39.614 0 0 1 18.19 52.712 A 55.075 55.075 0 0 1 14.232 51.89 A 67.783 67.783 0 0 1 11.72 51.222 Z M 53.029 89.943 L 51.564 89.943 A 55.438 55.438 0 0 0 51.818 95.44 Q 52.376 101.019 54.159 104.584 A 15.341 15.341 0 0 0 54.445 105.129 L 47.023 105.129 A 19.105 19.105 0 0 0 48.663 100.977 Q 49.817 96.797 49.898 90.855 A 66.636 66.636 0 0 0 49.904 89.943 L 48.439 89.943 Q 46.836 93.709 44.725 95.601 A 6.984 6.984 0 0 1 39.943 97.512 A 11.549 11.549 0 0 1 35.89 96.859 Q 30.422 94.815 30.422 86.379 A 17.538 17.538 0 0 1 30.526 84.395 Q 30.76 82.343 31.521 81.092 A 4.692 4.692 0 0 1 31.74 80.763 A 4.227 4.227 0 0 1 32.16 79.802 Q 33.354 77.628 37.742 72.121 A 291.188 291.188 0 0 1 39.87 69.484 A 194.061 194.061 0 0 0 43.433 64.992 Q 47.2 60.085 49.479 56.338 A 47.431 47.431 0 0 0 50.734 54.152 Q 53.477 59.258 59.593 66.989 A 210.776 210.776 0 0 0 61.598 69.484 A 275.745 275.745 0 0 1 64.227 72.752 Q 68.95 78.723 69.638 80.483 A 2.136 2.136 0 0 1 69.728 80.763 Q 70.963 82.455 71.041 85.901 A 20.92 20.92 0 0 1 71.047 86.379 A 18.953 18.953 0 0 1 70.627 90.563 Q 69.048 97.512 61.525 97.512 Q 57.32 97.512 54.418 92.698 A 22.148 22.148 0 0 1 53.029 89.943 Z" vector-effect="non-scaling-stroke"/></g></svg>