<svg width="82.767" height="116.849" viewBox="0 0 82.767 116.849" xmlns="http://www.w3.org/2000/svg"><g id="svgGroup" stroke-linecap="round" fill-rule="evenodd" font-size="9pt" stroke="#000" stroke-width="0.25mm" fill="#000" style="stroke:#000;stroke-width:0.25mm;fill:#000"><path d="M 11.72 0.002 L 71.047 0.002 Q 80.346 0.002 82.266 7.381 A 17.265 17.265 0 0 1 82.765 11.72 L 82.765 105.129 Q 82.765 114.428 75.386 116.348 A 17.265 17.265 0 0 1 71.047 116.847 L 11.72 116.847 Q 2.421 116.847 0.501 109.468 A 17.265 17.265 0 0 1 0.002 105.129 L 0.002 11.72 Q 0.002 2.421 7.381 0.501 A 17.265 17.265 0 0 1 11.72 0.002 Z M 71.047 5.861 L 11.72 5.861 Q 7.071 5.861 6.111 9.551 A 8.633 8.633 0 0 0 5.861 11.72 L 5.861 105.129 Q 5.861 109.778 9.551 110.738 A 8.633 8.633 0 0 0 11.72 110.988 L 71.047 110.988 Q 75.696 110.988 76.656 107.299 A 8.633 8.633 0 0 0 76.906 105.129 L 76.906 11.72 Q 76.906 7.071 73.217 6.111 A 8.633 8.633 0 0 0 71.047 5.861 Z M 53.029 89.943 L 51.564 89.943 A 55.438 55.438 0 0 0 51.818 95.44 Q 52.376 101.019 54.159 104.584 A 15.341 15.341 0 0 0 54.445 105.129 L 47.023 105.129 A 19.105 19.105 0 0 0 48.663 100.977 Q 49.817 96.797 49.898 90.855 A 66.636 66.636 0 0 0 49.904 89.943 L 48.439 89.943 Q 46.836 93.709 44.725 95.601 A 6.984 6.984 0 0 1 39.943 97.512 A 11.549 11.549 0 0 1 35.89 96.859 Q 30.422 94.815 30.422 86.379 A 17.538 17.538 0 0 1 30.526 84.395 Q 30.76 82.343 31.521 81.092 A 4.692 4.692 0 0 1 31.74 80.763 A 4.227 4.227 0 0 1 32.16 79.802 Q 33.354 77.628 37.742 72.121 A 291.188 291.188 0 0 1 39.87 69.484 A 194.061 194.061 0 0 0 43.433 64.992 Q 47.2 60.085 49.479 56.338 A 47.431 47.431 0 0 0 50.734 54.152 Q 53.477 59.258 59.593 66.989 A 210.776 210.776 0 0 0 61.598 69.484 A 275.745 275.745 0 0 1 64.227 72.752 Q 68.95 78.723 69.638 80.483 A 2.136 2.136 0 0 1 69.728 80.763 Q 70.963 82.455 71.041 85.901 A 20.92 20.92 0 0 1 71.047 86.379 A 18.953 18.953 0 0 1 70.627 90.563 Q 69.048 97.512 61.525 97.512 Q 57.32 97.512 54.418 92.698 A 22.148 22.148 0 0 1 53.029 89.943 Z M 41.066 12.502 L 41.066 17.531 A 26.554 26.554 0 0 0 36.232 16.066 Q 33.791 15.529 31.398 15.529 A 17.085 17.085 0 0 0 27.612 15.923 Q 24.947 16.529 23.026 18.064 A 10.272 10.272 0 0 0 21.828 19.191 A 12.763 12.763 0 0 0 19.53 22.991 Q 18.82 24.762 18.426 26.952 A 30.627 30.627 0 0 0 18.019 30.373 Q 19.875 27.98 22.658 26.711 A 14.702 14.702 0 0 1 28.192 25.452 A 17.021 17.021 0 0 1 28.81 25.441 A 21.81 21.81 0 0 1 33.42 25.9 Q 36.408 26.546 38.665 28.102 A 12.829 12.829 0 0 1 39.992 29.152 A 12.411 12.411 0 0 1 43.897 36.666 A 17.77 17.77 0 0 1 44.094 39.357 Q 44.094 45.558 39.797 49.416 A 14.442 14.442 0 0 1 33.286 52.711 A 21.342 21.342 0 0 1 28.469 53.224 A 19.529 19.529 0 0 1 23.318 52.584 A 13.657 13.657 0 0 1 16.017 47.804 Q 12.735 43.664 11.96 36.647 A 42.091 42.091 0 0 1 11.72 32.033 A 28.726 28.726 0 0 1 12.402 25.595 Q 13.559 20.56 16.682 16.999 A 18.369 18.369 0 0 1 16.994 16.652 A 17.43 17.43 0 0 1 27.949 11.093 A 24.561 24.561 0 0 1 31.154 10.89 Q 33.547 10.89 35.988 11.281 A 45.551 45.551 0 0 1 39.598 12.089 A 53.188 53.188 0 0 1 41.066 12.502 Z M 28.469 29.787 A 11.749 11.749 0 0 0 25.613 30.115 A 8.158 8.158 0 0 0 21.681 32.326 A 8.634 8.634 0 0 0 19.499 36.462 A 12.856 12.856 0 0 0 19.191 39.357 A 12.507 12.507 0 0 0 19.509 42.262 A 8.413 8.413 0 0 0 21.681 46.291 Q 24.172 48.879 28.469 48.879 A 11.257 11.257 0 0 0 31.379 48.522 A 8.104 8.104 0 0 0 35.207 46.291 Q 37.697 43.752 37.697 39.357 A 12.801 12.801 0 0 0 37.375 36.403 A 8.618 8.618 0 0 0 35.207 32.326 A 8.28 8.28 0 0 0 30.734 29.991 A 12.022 12.022 0 0 0 28.469 29.787 Z" vector-effect="non-scaling-stroke"/></g></svg>