<svg width="82.767" height="116.849" viewBox="0 0 82.767 116.849" xmlns="http://www.w3.org/2000/svg"><g id="svgGroup" stroke-linecap="round" fill-rule="evenodd" font-size="9pt" stroke="#000" stroke-width="0.25mm" fill="#000" style="stroke:#000;stroke-width:0.25mm;fill:#000"><path d="M 11.72 0.002 L 71.047 0.002 Q 80.346 0.002 82.266 7.381 A 17.265 17.265 0 0 1 82.765 11.72 L 82.765 105.129 Q 82.765 114.428 75.386 116.348 A 17.265 17.265 0 0 1 71.047 116.847 L 11.72 116.847 Q 2.421 116.847 0.501 109.468 A 17.265 17.265 0 0 1 0.002 105.129 L 0.002 11.72 Q 0.002 2.421 7.381 0.501 A 17.265 17.265 0 0 1 11.72 0.002 Z M 71.047 5.861 L 11.72 5.861 Q 7.071 5.861 6.111 9.551 A 8.633 8.633 0 0 0 5.861 11.72 L 5.861 105.129 Q 5.861 109.778 9.551 110.738 A 8.633 8.633 0 0 0 11.72 110.988 L 71.047 110.988 Q 75.696 110.988 76.656 107.299 A 8.633 8.633 0 0 0 76.906 105.129 L 76.906 11.72 Q 76.906 7.071 73.217 6.111 A 8.633 8.633 0 0 0 71.047 5.861 Z M 53.029 89.943 L 51.564 89.943 A 55.438 55.438 0 0 0 51.818 95.44 Q 52.376 101.019 54.159 104.584 A 15.341 15.341 0 0 0 54.445 105.129 L 47.023 105.129 A 19.105 19.105 0 0 0 48.663 100.977 Q 49.817 96.797 49.898 90.855 A 66.636 66.636 0 0 0 49.904 89.943 L 48.439 89.943 Q 46.836 93.709 44.725 95.601 A 6.984 6.984 0 0 1 39.943 97.512 A 11.549 11.549 0 0 1 35.89 96.859 Q 30.422 94.815 30.422 86.379 A 17.538 17.538 0 0 1 30.526 84.395 Q 30.76 82.343 31.521 81.092 A 4.692 4.692 0 0 1 31.74 80.763 A 4.227 4.227 0 0 1 32.16 79.802 Q 33.354 77.628 37.742 72.121 A 291.188 291.188 0 0 1 39.87 69.484 A 194.061 194.061 0 0 0 43.433 64.992 Q 47.2 60.085 49.479 56.338 A 47.431 47.431 0 0 0 50.734 54.152 Q 53.477 59.258 59.593 66.989 A 210.776 210.776 0 0 0 61.598 69.484 A 275.745 275.745 0 0 1 64.227 72.752 Q 68.95 78.723 69.638 80.483 A 2.136 2.136 0 0 1 69.728 80.763 Q 70.963 82.455 71.041 85.901 A 20.92 20.92 0 0 1 71.047 86.379 A 18.953 18.953 0 0 1 70.627 90.563 Q 69.048 97.512 61.525 97.512 Q 57.32 97.512 54.418 92.698 A 22.148 22.148 0 0 1 53.029 89.943 Z M 14.748 51.613 L 14.748 46.584 Q 17.14 47.56 19.582 48.097 Q 22.023 48.586 24.367 48.586 A 17.31 17.31 0 0 0 28.18 48.191 Q 31.755 47.384 33.986 44.924 Q 36.417 42.202 37.311 37.351 A 31.041 31.041 0 0 0 37.746 33.742 A 11.054 11.054 0 0 1 34.413 36.684 A 13.772 13.772 0 0 1 33.107 37.355 A 14.211 14.211 0 0 1 28.249 38.576 A 17.027 17.027 0 0 1 26.955 38.625 A 21.565 21.565 0 0 1 22.373 38.166 Q 19.333 37.505 17.045 35.892 A 12.896 12.896 0 0 1 15.822 34.914 A 12.198 12.198 0 0 1 11.946 27.629 A 17.564 17.564 0 0 1 11.72 24.758 A 15.128 15.128 0 0 1 12.369 20.224 A 12.069 12.069 0 0 1 15.969 14.699 A 14.691 14.691 0 0 1 22.616 11.382 A 21.517 21.517 0 0 1 27.345 10.89 A 19.511 19.511 0 0 1 32.437 11.516 A 13.502 13.502 0 0 1 39.748 16.31 Q 43.03 20.45 43.805 27.468 A 42.091 42.091 0 0 1 44.045 32.082 A 28.984 28.984 0 0 1 43.37 38.52 Q 42.28 43.308 39.429 46.762 A 18.263 18.263 0 0 1 38.82 47.463 A 17.43 17.43 0 0 1 27.865 53.022 A 24.561 24.561 0 0 1 24.66 53.224 Q 22.267 53.224 19.826 52.834 A 45.551 45.551 0 0 1 16.216 52.025 A 53.188 53.188 0 0 1 14.748 51.613 Z M 27.345 34.328 A 11.749 11.749 0 0 0 30.201 34 A 8.158 8.158 0 0 0 34.133 31.789 A 8.379 8.379 0 0 0 36.269 27.867 Q 36.623 26.451 36.623 24.758 A 12.507 12.507 0 0 0 36.305 21.853 A 8.413 8.413 0 0 0 34.133 17.824 Q 31.642 15.236 27.345 15.236 Q 23.195 15.236 20.607 17.824 A 8.423 8.423 0 0 0 18.342 22.073 A 12.48 12.48 0 0 0 18.068 24.758 A 12.826 12.826 0 0 0 18.368 27.615 Q 18.856 29.75 20.137 31.276 A 8.008 8.008 0 0 0 20.607 31.789 A 8.28 8.28 0 0 0 25.08 34.124 A 12.022 12.022 0 0 0 27.345 34.328 Z" vector-effect="non-scaling-stroke"/></g></svg>