<svg width="82.767" height="116.849" viewBox="0 0 82.767 116.849" xmlns="http://www.w3.org/2000/svg"><g id="svgGroup" stroke-linecap="round" fill-rule="evenodd" font-size="9pt" stroke="#000" stroke-width="0.25mm" fill="#000" style="stroke:#000;stroke-width:0.25mm;fill:#000"><path d="M 11.72 0.002 L 71.047 0.002 Q 80.346 0.002 82.266 7.381 A 17.265 17.265 0 0 1 82.765 11.72 L 82.765 105.129 Q 82.765 114.428 75.386 116.348 A 17.265 17.265 0 0 1 71.047 116.847 L 11.72 116.847 Q 2.421 116.847 0.501 109.468 A 17.265 17.265 0 0 1 0.002 105.129 L 0.002 11.72 Q 0.002 2.421 7.381 0.501 A 17.265 17.265 0 0 1 11.72 0.002 Z M 71.047 5.861 L 11.72 5.861 Q 7.071 5.861 6.111 9.551 A 8.633 8.633 0 0 0 5.861 11.72 L 5.861 105.129 Q 5.861 109.778 9.551 110.738 A 8.633 8.633 0 0 0 11.72 110.988 L 71.047 110.988 Q 75.696 110.988 76.656 107.299 A 8.633 8.633 0 0 0 76.906 105.129 L 76.906 11.72 Q 76.906 7.071 73.217 6.111 A 8.633 8.633 0 0 0 71.047 5.861 Z M 53.029 89.943 L 51.564 89.943 A 55.438 55.438 0 0 0 51.818 95.44 Q 52.376 101.019 54.159 104.584 A 15.341 15.341 0 0 0 54.445 105.129 L 47.023 105.129 A 19.105 19.105 0 0 0 48.663 100.977 Q 49.817 96.797 49.898 90.855 A 66.636 66.636 0 0 0 49.904 89.943 L 48.439 89.943 Q 46.836 93.709 44.725 95.601 A 6.984 6.984 0 0 1 39.943 97.512 A 11.549 11.549 0 0 1 35.89 96.859 Q 30.422 94.815 30.422 86.379 A 17.538 17.538 0 0 1 30.526 84.395 Q 30.76 82.343 31.521 81.092 A 4.692 4.692 0 0 1 31.74 80.763 A 4.227 4.227 0 0 1 32.16 79.802 Q 33.354 77.628 37.742 72.121 A 291.188 291.188 0 0 1 39.87 69.484 A 194.061 194.061 0 0 0 43.433 64.992 Q 47.2 60.085 49.479 56.338 A 47.431 47.431 0 0 0 50.734 54.152 Q 53.477 59.258 59.593 66.989 A 210.776 210.776 0 0 0 61.598 69.484 A 275.745 275.745 0 0 1 64.227 72.752 Q 68.95 78.723 69.638 80.483 A 2.136 2.136 0 0 1 69.728 80.763 Q 70.963 82.455 71.041 85.901 A 20.92 20.92 0 0 1 71.047 86.379 A 18.953 18.953 0 0 1 70.627 90.563 Q 69.048 97.512 61.525 97.512 Q 57.32 97.512 54.418 92.698 A 22.148 22.148 0 0 1 53.029 89.943 Z M 54.935 15.04 A 12.472 12.472 0 0 0 45.461 10.89 A 18.429 18.429 0 0 0 41.471 11.296 A 11.133 11.133 0 0 0 34.133 16.31 Q 30.715 21.73 30.715 32.033 Q 30.715 42.385 34.133 47.804 A 11.069 11.069 0 0 0 41.16 52.747 A 18.094 18.094 0 0 0 45.461 53.224 A 12.395 12.395 0 0 0 52.422 51.212 A 14.728 14.728 0 0 0 56.008 47.804 A 17.142 17.142 0 0 0 58.41 43.391 Q 60.158 38.75 60.158 32.033 Q 60.158 21.73 56.008 16.31 A 16.977 16.977 0 0 0 54.935 15.04 Z M 25.246 52.492 L 18.215 52.492 L 18.215 17.287 L 11.72 19.289 L 11.72 13.625 L 18.556 11.72 L 25.246 11.72 L 25.246 52.492 Z M 51.369 19.435 Q 48.928 15.236 45.461 15.236 A 5.574 5.574 0 0 0 41.728 16.697 Q 40.554 17.713 39.553 19.435 A 14.552 14.552 0 0 0 38.135 22.818 Q 37.169 26.153 37.073 30.953 A 53.922 53.922 0 0 0 37.062 32.033 A 46.091 46.091 0 0 0 37.259 36.449 Q 37.693 40.936 39.079 43.797 A 11.93 11.93 0 0 0 39.553 44.679 Q 41.994 48.879 45.461 48.879 A 5.574 5.574 0 0 0 49.194 47.418 Q 50.368 46.402 51.369 44.679 A 14.519 14.519 0 0 0 52.784 41.302 Q 53.752 37.956 53.848 33.125 A 54.521 54.521 0 0 0 53.859 32.033 Q 53.859 24.343 51.772 20.174 A 11.843 11.843 0 0 0 51.369 19.435 Z" vector-effect="non-scaling-stroke"/></g></svg>